<svg width="32" height="33" viewBox="0 0 32 33" fill="none" xmlns="http://www.w3.org/2000/svg">
<rect y="0.0800781" width="32" height="32" rx="16" fill="#E3E6E9"/>
<path d="M15.5002 14.8092C16.11 14.8092 16.7062 14.6284 17.2132 14.2896C17.7203 13.9508 18.1155 13.4693 18.3488 12.9059C18.5822 12.3424 18.6433 11.7225 18.5243 11.1244C18.4053 10.5263 18.1117 9.97688 17.6804 9.54567C17.2492 9.11445 16.6998 8.8208 16.1017 8.70182C15.5036 8.58285 14.8837 8.64391 14.3203 8.87728C13.7569 9.11065 13.2753 9.50585 12.9365 10.0129C12.5977 10.52 12.4169 11.1161 12.4169 11.7259C12.4169 12.5437 12.7417 13.3279 13.32 13.9062C13.8982 14.4844 14.6825 14.8092 15.5002 14.8092ZM20.1252 22.5176C20.3296 22.5176 20.5257 22.4364 20.6703 22.2918C20.8148 22.1472 20.896 21.9512 20.896 21.7467C20.896 20.3157 20.3275 18.9432 19.3156 17.9313C18.3037 16.9194 16.9313 16.3509 15.5002 16.3509C14.0691 16.3509 12.6967 16.9194 11.6848 17.9313C10.6729 18.9432 10.1044 20.3157 10.1044 21.7467C10.1044 21.9512 10.1856 22.1472 10.3301 22.2918C10.4747 22.4364 10.6708 22.5176 10.8752 22.5176H20.1252Z" fill="#666481"/>
</svg>
