<svg width="80" height="81" viewBox="0 0 80 81" fill="none" xmlns="http://www.w3.org/2000/svg">
<rect y="0.160278" width="80" height="80" rx="40" fill="#FFEBCF"/>
<path d="M23.334 23.4937H26.234C28.034 23.4937 29.4507 25.0437 29.3007 26.827L27.9173 43.427C27.684 46.1436 29.834 48.477 32.5673 48.477H50.3173C52.7173 48.477 54.8173 46.5103 55.0007 44.127L55.9006 31.627C56.1006 28.8603 54.0006 26.6103 51.2173 26.6103H29.7007" stroke="#1B1E21" stroke-width="1.5" stroke-miterlimit="10" stroke-linecap="round" stroke-linejoin="round"/>
<path d="M47.0833 56.8269C48.2339 56.8269 49.1667 55.8942 49.1667 54.7436C49.1667 53.593 48.2339 52.6603 47.0833 52.6603C45.9327 52.6603 45 53.593 45 54.7436C45 55.8942 45.9327 56.8269 47.0833 56.8269Z" stroke="#1B1E21" stroke-width="1.5" stroke-miterlimit="10" stroke-linecap="round" stroke-linejoin="round"/>
<path d="M33.7493 56.8269C34.8999 56.8269 35.8327 55.8942 35.8327 54.7436C35.8327 53.593 34.8999 52.6603 33.7493 52.6603C32.5988 52.6603 31.666 53.593 31.666 54.7436C31.666 55.8942 32.5988 56.8269 33.7493 56.8269Z" stroke="#1B1E21" stroke-width="1.5" stroke-miterlimit="10" stroke-linecap="round" stroke-linejoin="round"/>
<path d="M35 33.4937H55" stroke="#1B1E21" stroke-width="1.5" stroke-miterlimit="10" stroke-linecap="round" stroke-linejoin="round"/>
</svg>
