<svg width="20" height="21" viewBox="0 0 20 21" fill="none" xmlns="http://www.w3.org/2000/svg">
<path d="M9.25008 18.6188H5.75008C4.18336 18.6188 3.16354 18.2689 2.52759 17.633C1.89165 16.997 1.54175 15.9772 1.54175 14.4105V10.9105C1.54175 9.34376 1.89165 8.32394 2.52759 7.68799C3.16354 7.05205 4.18336 6.70215 5.75008 6.70215H9.25008C10.8168 6.70215 11.8366 7.05205 12.4726 7.68799C13.1085 8.32394 13.4584 9.34376 13.4584 10.9105V14.4105C13.4584 15.9772 13.1085 16.997 12.4726 17.633C11.8366 18.2689 10.8168 18.6188 9.25008 18.6188ZM5.75008 6.95215C4.42887 6.95215 3.38786 7.16976 2.69861 7.85901C2.00936 8.54826 1.79175 9.58927 1.79175 10.9105V14.4105C1.79175 15.7317 2.00936 16.7727 2.69861 17.462C3.38786 18.1512 4.42887 18.3688 5.75008 18.3688H9.25008C10.5713 18.3688 11.6123 18.1512 12.3016 17.462C12.9908 16.7727 13.2084 15.7317 13.2084 14.4105V10.9105C13.2084 9.58927 12.9908 8.54826 12.3016 7.85901C11.6123 7.16976 10.5713 6.95215 9.25008 6.95215H5.75008Z" fill="" stroke=""/>
<path d="M13.4584 12.8688V13.3688H13.9584H14.2501C15.5713 13.3688 16.6123 13.1512 17.3016 12.462C17.9908 11.7727 18.2084 10.7317 18.2084 9.41048V5.91048C18.2084 4.58927 17.9908 3.54826 17.3016 2.85901C16.6123 2.16976 15.5713 1.95215 14.2501 1.95215H10.7501C9.42887 1.95215 8.38786 2.16976 7.69861 2.85901C7.00936 3.54826 6.79175 4.58927 6.79175 5.91048V6.20215V6.70215H7.29175H9.25008C10.8168 6.70215 11.8366 7.05205 12.4726 7.68799C13.1085 8.32394 13.4584 9.34376 13.4584 10.9105V12.8688ZM14.2501 13.6188H13.3334C13.3033 13.6188 13.272 13.6065 13.2463 13.5809C13.2207 13.5552 13.2084 13.524 13.2084 13.4938V10.9105C13.2084 9.58927 12.9908 8.54826 12.3016 7.85901C11.6123 7.16976 10.5713 6.95215 9.25008 6.95215H6.66675C6.6366 6.95215 6.60532 6.93986 6.57968 6.91422C6.55403 6.88858 6.54175 6.8573 6.54175 6.82715V5.91048C6.54175 4.34376 6.89165 3.32394 7.52759 2.68799C8.16354 2.05205 9.18336 1.70215 10.7501 1.70215H14.2501C15.8168 1.70215 16.8366 2.05205 17.4726 2.68799C18.1085 3.32394 18.4584 4.34376 18.4584 5.91048V9.41048C18.4584 10.9772 18.1085 11.997 17.4726 12.633C16.8366 13.2689 15.8168 13.6188 14.2501 13.6188Z" fill="" stroke=""/>
</svg>
