<svg width="34" height="33" viewBox="0 0 34 33" fill="none" xmlns="http://www.w3.org/2000/svg">
<path fill-rule="evenodd" clip-rule="evenodd" d="M1.05591 16.7163C1.05591 7.87975 8.21935 0.716309 17.0559 0.716309C25.8925 0.716309 33.0559 7.87975 33.0559 16.7163C33.0559 25.5529 25.8925 32.7163 17.0559 32.7163C8.21935 32.7163 1.05591 25.5529 1.05591 16.7163Z" fill="#141414"/>
<g clip-path="url(#clip0_1243_12473)">
<path d="M16.9989 15.9011L24.1123 10.9022C23.8673 10.7773 23.594 10.7002 23.3002 10.7002H10.7002C10.3961 10.7002 10.114 10.7828 9.86279 10.9159L16.9989 15.9011Z" fill="#CD9900"/>
<path d="M17.0015 18.0988L8.90591 12.4432C8.90531 12.4625 8.90015 12.4806 8.90015 12.5001V21.5001C8.90015 22.4942 9.70605 23.3001 10.7001 23.3001H23.3001C24.2942 23.3001 25.1001 22.4942 25.1001 21.5001V12.5001C25.1001 12.4708 25.0929 12.4436 25.0915 12.4146L17.0015 18.0988Z" fill="#CD9900"/>
</g>
<defs>
<clipPath id="clip0_1243_12473">
<rect width="18" height="18" fill="white" transform="translate(8.00012 8)"/>
</clipPath>
</defs>
</svg>
