<svg width="33" height="33" viewBox="0 0 33 33" fill="none" xmlns="http://www.w3.org/2000/svg">
<path fill-rule="evenodd" clip-rule="evenodd" d="M0.611328 16.7163C0.611328 7.87975 7.77477 0.716309 16.6113 0.716309C25.4479 0.716309 32.6113 7.87975 32.6113 16.7163C32.6113 25.5529 25.4479 32.7163 16.6113 32.7163C7.77477 32.7163 0.611328 25.5529 0.611328 16.7163Z" fill="#141414"/>
<path d="M16.554 15.9011L23.6675 10.9022C23.4225 10.7773 23.1492 10.7002 22.8553 10.7002H10.2553C9.95124 10.7002 9.66917 10.7828 9.41797 10.9159L16.554 15.9011Z" fill="#CD9900"/>
<path d="M16.5574 18.0988L8.46182 12.4432C8.46122 12.4625 8.45605 12.4806 8.45605 12.5001V21.5001C8.45605 22.4942 9.26196 23.3001 10.2561 23.3001H22.8561C23.8502 23.3001 24.6561 22.4942 24.6561 21.5001V12.5001C24.6561 12.4708 24.6488 12.4436 24.6474 12.4146L16.5574 18.0988Z" fill="#CD9900"/>
</svg>
