<svg width="24" height="24" viewBox="0 0 24 24" fill="none" xmlns="http://www.w3.org/2000/svg">
<path d="M12.0001 8.16992C14.1139 8.16996 15.8302 9.88617 15.8302 12C15.8302 14.1138 14.1139 15.83 12.0001 15.8301C9.88629 15.8301 8.17009 14.1138 8.17004 12C8.17004 9.88614 9.88626 8.16992 12.0001 8.16992ZM12.0001 8.66992C10.164 8.66992 8.67004 10.1639 8.67004 12C8.67009 13.8361 10.164 15.3301 12.0001 15.3301C13.8362 15.33 15.3302 13.8361 15.3302 12C15.3302 10.1639 13.8362 8.66996 12.0001 8.66992Z" fill="#4B525A" stroke="#4B525A"/>
<path d="M11.9999 3.48047C15.4305 3.48047 18.7351 5.4303 21.0936 8.92676L21.3182 9.26953L21.3192 9.27051C21.7863 9.99751 22.035 10.9837 22.035 11.9971C22.035 12.8837 21.8443 13.7514 21.4833 14.4453L21.3182 14.7314C18.9475 18.4429 15.541 20.5205 11.9999 20.5205C8.55936 20.5205 5.25475 18.5704 2.89636 15.0742L2.67175 14.7314L2.67078 14.7305L2.50574 14.4463C2.14517 13.7567 1.95496 12.8908 1.95496 12.0039C1.95501 10.9907 2.20397 10.0021 2.67175 9.26953L2.67078 9.26855C5.0517 5.557 8.45915 3.4805 11.9999 3.48047ZM11.9999 3.98047C8.55682 3.9805 5.32575 6.04765 3.09949 9.54102C2.65918 10.2279 2.45796 11.1313 2.45789 12C2.45789 12.8681 2.65892 13.7712 3.09851 14.458V14.459C5.3248 17.953 8.55646 20.0205 11.9999 20.0205C15.4432 20.0205 18.674 17.9527 20.9003 14.459L20.9012 14.46C21.3415 13.773 21.5428 12.8687 21.5428 12C21.5428 11.1314 21.3414 10.2279 20.9012 9.54102H20.9003C18.674 6.04767 15.4429 3.98047 11.9999 3.98047Z" fill="#4B525A" stroke="#4B525A"/>
</svg>
