<svg width="16" height="16" viewBox="0 0 16 16" fill="none" xmlns="http://www.w3.org/2000/svg">
<path d="M12.4001 1.40002L3.60006 1.40002C2.86673 1.40002 2.26673 2.00002 2.26673 2.73336V4.20002C2.26673 4.73336 2.60006 5.40002 2.9334 5.73336L5.80006 8.26669C6.20006 8.60002 6.46673 9.26669 6.46673 9.80003V12.6667C6.46673 13.0667 6.7334 13.6 7.06673 13.8L8.00006 14.4C8.86673 14.9334 10.0667 14.3334 10.0667 13.2667L10.0667 9.73336C10.0667 9.26669 10.3334 8.66669 10.6001 8.33336L13.1334 5.66669C13.4667 5.33336 13.7334 4.73336 13.7334 4.33336V2.80002C13.7334 2.00002 13.1334 1.40002 12.4001 1.40002Z" stroke="#4B525A" stroke-width="1.5" stroke-miterlimit="10" stroke-linecap="round" stroke-linejoin="round"/>
<path d="M8.71333 1.40002L12 6.66669" stroke="#4B525A" stroke-width="1.5" stroke-miterlimit="10" stroke-linecap="round" stroke-linejoin="round"/>
</svg>
