<svg width="41" height="41" viewBox="0 0 41 41" fill="none" xmlns="http://www.w3.org/2000/svg">
<path d="M36.6334 28.767L31.4167 16.5837C29.65 12.4504 26.4 12.2837 24.2167 16.217L21.0667 21.9004C19.4667 24.7837 16.4834 25.0337 14.4167 22.4504L14.05 21.9837C11.9 19.2837 8.86671 19.617 7.31671 22.7004L4.45004 28.4504C2.43337 32.4504 5.35004 37.167 9.81671 37.167H31.0834C35.4167 37.167 38.3334 32.7504 36.6334 28.767Z" stroke="#1D1D1D" stroke-width="1.5" stroke-linecap="round" stroke-linejoin="round"/>
<path d="M12.1167 13.833C14.8781 13.833 17.1167 11.5944 17.1167 8.83301C17.1167 6.07158 14.8781 3.83301 12.1167 3.83301C9.35527 3.83301 7.1167 6.07158 7.1167 8.83301C7.1167 11.5944 9.35527 13.833 12.1167 13.833Z" stroke="#1D1D1D" stroke-width="1.5" stroke-linecap="round" stroke-linejoin="round"/>
</svg>
