<svg width="32" height="33" viewBox="0 0 32 33" fill="none" xmlns="http://www.w3.org/2000/svg">
<path fill-rule="evenodd" clip-rule="evenodd" d="M0 16.7163C0 7.87975 7.16344 0.716309 16 0.716309C24.8366 0.716309 32 7.87975 32 16.7163C32 25.5529 24.8366 32.7163 16 32.7163C7.16344 32.7163 0 25.5529 0 16.7163Z" fill="white"/>
<g clip-path="url(#clip0_2172_13718)">
<path d="M16.3631 13.8574C14.8023 13.8574 13.5286 15.1311 13.5286 16.6919C13.5286 18.2527 14.8023 19.5264 16.3631 19.5264C17.9239 19.5264 19.1976 18.2527 19.1976 16.6919C19.1976 15.1311 17.9239 13.8574 16.3631 13.8574ZM24.8646 16.6919C24.8646 15.5181 24.8752 14.3549 24.8093 13.1833C24.7434 11.8224 24.4329 10.6145 23.4378 9.61937C22.4405 8.62207 21.2348 8.31373 19.8739 8.24781C18.7001 8.18189 17.5369 8.19253 16.3652 8.19253C15.1914 8.19253 14.0283 8.18189 12.8566 8.24781C11.4957 8.31373 10.2879 8.62419 9.29271 9.61937C8.29541 10.6167 7.98707 11.8224 7.92115 13.1833C7.85523 14.3571 7.86587 15.5202 7.86587 16.6919C7.86587 17.8636 7.85523 19.0288 7.92115 20.2005C7.98707 21.5614 8.29753 22.7692 9.29271 23.7644C10.29 24.7617 11.4957 25.0701 12.8566 25.136C14.0304 25.2019 15.1936 25.1913 16.3652 25.1913C17.539 25.1913 18.7022 25.2019 19.8739 25.136C21.2348 25.0701 22.4426 24.7596 23.4378 23.7644C24.4351 22.7671 24.7434 21.5614 24.8093 20.2005C24.8774 19.0288 24.8646 17.8657 24.8646 16.6919ZM16.3631 21.0532C13.9496 21.0532 12.0018 19.1054 12.0018 16.6919C12.0018 14.2784 13.9496 12.3306 16.3631 12.3306C18.7766 12.3306 20.7244 14.2784 20.7244 16.6919C20.7244 19.1054 18.7766 21.0532 16.3631 21.0532ZM20.9031 13.1705C20.3395 13.1705 19.8845 12.7155 19.8845 12.152C19.8845 11.5884 20.3395 11.1334 20.9031 11.1334C21.4666 11.1334 21.9216 11.5884 21.9216 12.152C21.9218 12.2858 21.8956 12.4183 21.8444 12.5419C21.7933 12.6656 21.7183 12.7779 21.6237 12.8726C21.529 12.9672 21.4167 13.0422 21.293 13.0933C21.1694 13.1445 21.0369 13.1707 20.9031 13.1705Z" fill="#141414"/>
</g>
<defs>
<clipPath id="clip0_2172_13718">
<rect width="18" height="18" fill="white" transform="translate(7 7.32812)"/>
</clipPath>
</defs>
</svg>
