<svg width="33" height="33" viewBox="0 0 33 33" fill="none" xmlns="http://www.w3.org/2000/svg">
<path fill-rule="evenodd" clip-rule="evenodd" d="M0.444336 16.7163C0.444336 7.87975 7.60778 0.716309 16.4443 0.716309C25.2809 0.716309 32.4443 7.87975 32.4443 16.7163C32.4443 25.5529 25.2809 32.7163 16.4443 32.7163C7.60778 32.7163 0.444336 25.5529 0.444336 16.7163Z" fill="#141414"/>
<g clip-path="url(#clip0_1243_12458)">
<path d="M16.8077 13.8574C15.2469 13.8574 13.9731 15.1311 13.9731 16.6919C13.9731 18.2527 15.2469 19.5264 16.8077 19.5264C18.3685 19.5264 19.6422 18.2527 19.6422 16.6919C19.6422 15.1311 18.3685 13.8574 16.8077 13.8574ZM25.3092 16.6919C25.3092 15.5181 25.3198 14.3549 25.2539 13.1833C25.188 11.8224 24.8775 10.6145 23.8823 9.61937C22.885 8.62207 21.6794 8.31373 20.3184 8.24781C19.1446 8.18189 17.9815 8.19253 16.8098 8.19253C15.636 8.19253 14.4729 8.18189 13.3012 8.24781C11.9403 8.31373 10.7325 8.62419 9.73729 9.61937C8.73999 10.6167 8.43165 11.8224 8.36573 13.1833C8.29981 14.3571 8.31045 15.5202 8.31045 16.6919C8.31045 17.8636 8.29981 19.0288 8.36573 20.2005C8.43165 21.5614 8.74211 22.7692 9.73729 23.7644C10.7346 24.7617 11.9403 25.0701 13.3012 25.136C14.475 25.2019 15.6381 25.1913 16.8098 25.1913C17.9836 25.1913 19.1468 25.2019 20.3184 25.136C21.6794 25.0701 22.8872 24.7596 23.8823 23.7644C24.8796 22.7671 25.188 21.5614 25.2539 20.2005C25.3219 19.0288 25.3092 17.8657 25.3092 16.6919ZM16.8077 21.0532C14.3942 21.0532 12.4464 19.1054 12.4464 16.6919C12.4464 14.2784 14.3942 12.3306 16.8077 12.3306C19.2212 12.3306 21.169 14.2784 21.169 16.6919C21.169 19.1054 19.2212 21.0532 16.8077 21.0532ZM21.3476 13.1705C20.7841 13.1705 20.3291 12.7155 20.3291 12.152C20.3291 11.5884 20.7841 11.1334 21.3476 11.1334C21.9111 11.1334 22.3662 11.5884 22.3662 12.152C22.3664 12.2858 22.3401 12.4183 22.289 12.5419C22.2379 12.6656 22.1629 12.7779 22.0682 12.8726C21.9736 12.9672 21.8613 13.0422 21.7376 13.0933C21.614 13.1445 21.4814 13.1707 21.3476 13.1705Z" fill="#CD9900"/>
</g>
<defs>
<clipPath id="clip0_1243_12458">
<rect width="18" height="18" fill="white" transform="translate(7.44434 7.32812)"/>
</clipPath>
</defs>
</svg>
