<svg width="24" height="24" viewBox="0 0 24 24" fill="none" xmlns="http://www.w3.org/2000/svg">
<path d="M6.27235 17.7272C5.06319 16.518 5.06319 14.5523 6.27235 13.3431L9.10077 10.5147L7.75727 9.1712L4.92884 11.9996C3.99116 12.9373 3.46438 14.2091 3.46438 15.5352C3.46438 16.8612 3.99116 18.133 4.92884 19.0707C5.86653 20.0084 7.1383 20.5352 8.46438 20.5352C9.79046 20.5352 11.0622 20.0084 11.9999 19.0707L14.8283 16.2423L13.4848 14.8988L10.6564 17.7272C9.44726 18.9363 7.4815 18.9363 6.27235 17.7272ZM9.87859 15.5352L15.5354 9.8783L14.1212 8.46409L8.46438 14.1209L9.87859 15.5352ZM11.9999 4.92855L9.17149 7.75698L10.515 9.10048L13.3434 6.27206C14.5526 5.06291 16.5183 5.0629 17.7275 6.27206C18.9366 7.48121 18.9366 9.44697 17.7275 10.6561L14.8991 13.4845L16.2426 14.828L19.071 11.9996C20.0087 11.0619 20.5354 9.79017 20.5354 8.46409C20.5354 7.13801 20.0087 5.86624 19.071 4.92855C18.1333 3.99087 16.8615 3.46409 15.5354 3.46409C14.2094 3.46409 12.9376 3.99087 11.9999 4.92855Z" fill="#1D1D1D"/>
</svg>
