<svg width="151" height="150" viewBox="0 0 151 150" fill="none" xmlns="http://www.w3.org/2000/svg">
<path d="M121.343 66.4806C122.936 66.4806 124.227 65.1891 124.227 63.5959C124.227 62.0027 122.936 60.7112 121.343 60.7112C119.75 60.7112 118.458 62.0027 118.458 63.5959C118.458 65.1891 119.75 66.4806 121.343 66.4806Z" fill="#F9FAFB"/>
<path d="M75.5 127.04C103.819 127.04 126.776 118.034 126.776 106.925C126.776 95.8157 103.819 86.8098 75.5 86.8098C47.1809 86.8098 24.2236 95.8157 24.2236 106.925C24.2236 118.034 47.1809 127.04 75.5 127.04Z" fill="#F9FAFB"/>
<path d="M73.8539 34.4888L71.7234 47.8443H57.8789L73.8539 34.4888Z" fill="#D0D5DD"/>
<path d="M71.7238 48.1568H57.8793C57.7474 48.1568 57.6307 48.0749 57.5849 47.9512C57.5404 47.8276 57.5779 47.6887 57.6779 47.6054L73.653 34.2485C73.753 34.1651 73.8946 34.1526 74.0071 34.2165C74.121 34.2804 74.1821 34.4082 74.1613 34.5374L72.0307 47.8943C72.0085 48.0457 71.8779 48.1568 71.7238 48.1568ZM58.7404 47.5318H71.4571L73.4141 35.2637L58.7404 47.5318Z" fill="#F9FAFB"/>
<path d="M75.1308 59.5958C75.0349 59.5958 74.9391 59.5513 74.878 59.468L74.0349 58.318C73.9405 58.1888 73.9585 58.0083 74.078 57.8999C74.1974 57.793 74.3794 57.793 74.4974 57.9027C74.503 57.9083 74.5099 57.9138 74.5155 57.9208C74.521 57.9263 74.5266 57.9333 74.5308 57.9388C74.5446 57.9555 74.5599 57.9777 74.5752 57.9985L75.3821 59.0985C75.4835 59.2374 75.4544 59.4333 75.3155 59.5347C75.2599 59.5763 75.196 59.5958 75.1308 59.5958Z" fill="#F9FAFB"/>
<mask id="mask0_3767_22146" style="mask-type:luminance" maskUnits="userSpaceOnUse" x="73" y="57" width="3" height="3">
<path d="M75.1308 59.5958C75.0349 59.5958 74.9391 59.5513 74.878 59.468L74.0349 58.318C73.9405 58.1888 73.9585 58.0083 74.078 57.8999C74.1974 57.793 74.3794 57.793 74.4974 57.9027C74.503 57.9083 74.5099 57.9138 74.5155 57.9208C74.521 57.9263 74.5266 57.9333 74.5308 57.9388C74.5446 57.9555 74.5599 57.9777 74.5752 57.9985L75.3821 59.0985C75.4835 59.2374 75.4544 59.4333 75.3155 59.5347C75.2599 59.5763 75.196 59.5958 75.1308 59.5958Z" fill="white"/>
</mask>
<g mask="url(#mask0_3767_22146)">
<path d="M74.9542 58.9651L78.457 63.7401C78.2486 63.4554 78.0264 63.179 77.7903 62.9096C75.2 59.9582 71.4237 58.4818 67.4125 58.4818C65.6723 58.4818 63.8889 58.7596 62.1375 59.3151L58.6348 54.5401C60.3862 53.9846 62.1695 53.7068 63.9098 53.7068C67.9209 53.7068 71.6973 55.1832 74.2875 58.1346C74.5237 58.404 74.7459 58.6804 74.9542 58.9651Z" fill="#667185"/>
<path d="M78.4571 64.0526C78.3613 64.0526 78.2654 64.0082 78.2043 63.9248C78.0015 63.6471 77.7821 63.3748 77.5543 63.1151C75.1085 60.329 71.5071 58.7943 67.4113 58.7943C65.6849 58.7943 63.9432 59.0693 62.2307 59.6123C62.1029 59.6526 61.964 59.6068 61.8835 59.4998L58.3807 54.7248C58.321 54.6443 58.3043 54.5387 58.3363 54.4429C58.3668 54.3471 58.4432 54.2721 58.539 54.2415C60.3126 53.679 62.1182 53.3943 63.9085 53.3943C68.1863 53.3943 71.9557 55.004 74.521 57.9276C74.7613 58.2012 74.9904 58.4887 75.2057 58.7804L78.7057 63.5526C78.7071 63.554 78.7071 63.5554 78.7085 63.5554C78.8099 63.6943 78.7807 63.8901 78.6418 63.9929C78.5863 64.0332 78.5224 64.0526 78.4571 64.0526ZM67.4126 58.1693C70.6196 58.1693 73.5404 59.0748 75.8835 60.7596L74.7029 59.1498C74.5001 58.8721 74.2807 58.5998 74.0529 58.3401C71.6071 55.554 68.0057 54.0193 63.9099 54.0193C62.3238 54.0193 60.7238 54.2512 59.1474 54.711L62.2571 58.9512C63.9613 58.4318 65.6946 58.1693 67.4126 58.1693Z" fill="#F9FAFB"/>
</g>
<path d="M56.6042 81.0235C56.5181 81.0235 56.4333 80.9888 56.3708 80.9193L56.3222 80.8638C56.1611 80.679 56.0069 80.4874 55.8639 80.2929L52.3611 75.5179C52.2597 75.379 52.2889 75.1832 52.4278 75.0818C52.5667 74.9804 52.7625 75.0096 52.8653 75.1485L52.8681 75.1526C53 75.3318 53.1417 75.5082 53.2903 75.6776L53.3347 75.7276C53.3417 75.736 53.3486 75.7429 53.3542 75.7513L56.8569 80.5263C56.9556 80.661 56.9319 80.8485 56.8014 80.954C56.7431 81.0013 56.6722 81.0235 56.6042 81.0235Z" fill="#F9FAFB"/>
<mask id="mask1_3767_22146" style="mask-type:luminance" maskUnits="userSpaceOnUse" x="52" y="75" width="5" height="7">
<path d="M56.6042 81.0235C56.5181 81.0235 56.4333 80.9888 56.3708 80.9193L56.3222 80.8638C56.1611 80.679 56.0069 80.4874 55.8639 80.2929L52.3611 75.5179C52.2597 75.379 52.2889 75.1832 52.4278 75.0818C52.5667 74.9804 52.7625 75.0096 52.8653 75.1485L52.8681 75.1526C53 75.3318 53.1417 75.5082 53.2903 75.6776L53.3347 75.7276C53.3417 75.736 53.3486 75.7429 53.3542 75.7513L56.8569 80.5263C56.9556 80.661 56.9319 80.8485 56.8014 80.954C56.7431 81.0013 56.6722 81.0235 56.6042 81.0235Z" fill="white"/>
</mask>
<g mask="url(#mask1_3767_22146)">
<g opacity="0.6">
<path d="M53.3563 76.2083L56.8591 80.9833C56.7563 80.8777 56.6549 80.7694 56.5577 80.6582C56.4008 80.4805 56.2536 80.2958 56.1161 80.1083L52.6133 75.3333C52.7508 75.5208 52.898 75.7055 53.055 75.8832C53.1522 75.9944 53.2536 76.1027 53.3563 76.2083Z" fill="#667185"/>
<path d="M56.8587 81.2957C56.7768 81.2957 56.6962 81.2638 56.6351 81.2013C56.5268 81.0915 56.4212 80.9776 56.3212 80.8638C56.1601 80.6804 56.006 80.4888 55.8629 80.2929L52.3601 75.5179C52.2588 75.379 52.2879 75.1832 52.4268 75.0818C52.5657 74.9804 52.7615 75.0096 52.8643 75.1485L52.8671 75.1526C52.999 75.3318 53.1407 75.5082 53.2893 75.6776C53.3824 75.7832 53.4796 75.8888 53.5796 75.9901C53.5907 76.0013 53.599 76.0124 53.6087 76.0235L57.1115 80.7985C57.2087 80.9304 57.1865 81.1151 57.0615 81.2221C57.0032 81.2721 56.931 81.2957 56.8587 81.2957Z" fill="#F9FAFB"/>
</g>
</g>
<path d="M56.8589 81.2956C56.777 81.2956 56.6964 81.2637 56.6353 81.2012C56.545 81.1095 56.4562 81.0151 56.37 80.9178C56.3673 80.9137 56.3631 80.9109 56.3603 80.9067C56.3242 80.8623 56.2825 80.804 56.2437 80.7498L56.2006 80.6901L52.8478 76.1192C52.7492 75.9845 52.7728 75.797 52.9034 75.6914C53.0325 75.5859 53.2214 75.6012 53.3325 75.7262C53.4131 75.8151 53.495 75.9026 53.5784 75.9887C53.5881 75.9998 53.5978 76.0109 53.6075 76.022L57.1103 80.797C57.2075 80.929 57.1853 81.1137 57.0603 81.2206C57.002 81.272 56.9312 81.2956 56.8589 81.2956Z" fill="#F9FAFB"/>
<mask id="mask2_3767_22146" style="mask-type:luminance" maskUnits="userSpaceOnUse" x="52" y="75" width="6" height="7">
<path d="M56.8589 81.2956C56.777 81.2956 56.6964 81.2637 56.6353 81.2012C56.545 81.1095 56.4562 81.0151 56.37 80.9178C56.3673 80.9137 56.3631 80.9109 56.3603 80.9067C56.3242 80.8623 56.2825 80.804 56.2437 80.7498L56.2006 80.6901L52.8478 76.1192C52.7492 75.9845 52.7728 75.797 52.9034 75.6914C53.0325 75.5859 53.2214 75.6012 53.3325 75.7262C53.4131 75.8151 53.495 75.9026 53.5784 75.9887C53.5881 75.9998 53.5978 76.0109 53.6075 76.022L57.1103 80.797C57.2075 80.929 57.1853 81.1137 57.0603 81.2206C57.002 81.272 56.9312 81.2956 56.8589 81.2956Z" fill="white"/>
</mask>
<g mask="url(#mask2_3767_22146)">
<g opacity="0.6">
<path d="M53.3563 76.2083L56.8591 80.9833C56.7563 80.8777 56.6549 80.7694 56.5577 80.6582C56.4008 80.4805 56.2536 80.2958 56.1161 80.1083L52.6133 75.3333C52.7508 75.5208 52.898 75.7055 53.055 75.8832C53.1522 75.9944 53.2536 76.1027 53.3563 76.2083Z" fill="#667185"/>
<path d="M56.8587 81.2957C56.7768 81.2957 56.6962 81.2638 56.6351 81.2013C56.5268 81.0915 56.4212 80.9776 56.3212 80.8638C56.1601 80.6804 56.006 80.4888 55.8629 80.2929L52.3601 75.5179C52.2588 75.379 52.2879 75.1832 52.4268 75.0818C52.5657 74.9804 52.7615 75.0096 52.8643 75.1485L52.8671 75.1526C52.999 75.3318 53.1407 75.5082 53.2893 75.6776C53.3824 75.7832 53.4796 75.8888 53.5796 75.9901C53.5907 76.0013 53.599 76.0124 53.6087 76.0235L57.1115 80.7985C57.2087 80.9304 57.1865 81.1151 57.0615 81.2221C57.0032 81.2721 56.931 81.2957 56.8587 81.2957Z" fill="#F9FAFB"/>
</g>
</g>
<path d="M71.5312 70.3415C71.4478 70.6054 71.352 70.8706 71.2465 71.1318C71.0201 71.6929 70.7451 72.2443 70.4215 72.779C70.2659 73.0359 70.1006 73.2901 69.9215 73.5401C69.3159 74.3942 68.5798 75.197 67.7187 75.9151C65.3756 77.8748 62.559 78.8526 59.8978 78.8526C57.2381 78.8526 54.734 77.8734 53.0173 75.9151C49.5798 71.9984 50.5923 65.6512 55.277 61.7373C57.6201 59.7776 60.4367 58.7998 63.0979 58.7998C65.7576 58.7998 68.2617 59.779 69.9784 61.7373C70.0284 61.7943 70.0756 61.8498 70.1201 61.9068C70.3437 62.1762 70.5492 62.4581 70.7326 62.7456C71.0645 63.2679 71.327 63.8165 71.5298 64.3915C71.634 64.6831 71.7201 64.9817 71.7881 65.2845C72.1645 66.904 72.0687 68.6484 71.5312 70.3415Z" fill="#E4E7EC"/>
<path d="M71.7892 65.2847H62.6281C61.6614 65.2847 60.9961 64.5305 61.1461 63.5972C61.2947 62.6638 62.1989 61.9097 63.167 61.9097H70.1225C70.3461 62.1791 70.5517 62.4611 70.735 62.7486C71.067 63.2708 71.3294 63.8194 71.5322 64.3944C71.635 64.6833 71.7211 64.9819 71.7892 65.2847Z" fill="#98A2B3"/>
<path d="M71.5307 70.3415C71.4474 70.6054 71.3515 70.8706 71.246 71.1318C71.0196 71.6929 70.7446 72.2443 70.421 72.779C70.2654 73.0359 70.1001 73.2901 69.921 73.5401H61.2154C60.2974 73.5401 59.6724 72.8234 59.8126 71.9401C59.9543 71.0567 60.8099 70.3401 61.7251 70.3401H71.5307V70.3415Z" fill="#98A2B3"/>
<path d="M74.1323 34.2568H112.778L112.188 37.9596L102.032 101.635H53.1406H49.3018L52.3726 82.3763C54.3948 83.4235 56.7031 83.9471 59.0934 83.9471C62.3059 83.9471 65.6684 83.0013 68.6948 81.1082H95.792C96.2629 81.1082 96.7004 80.7416 96.774 80.2874C96.8462 79.836 96.524 79.4693 96.0545 79.4693H70.9407C73.2351 77.536 74.9365 75.2138 76.0087 72.761H97.124C97.5948 72.761 98.0323 72.3943 98.1045 71.9429C98.1768 71.4902 97.8545 71.1221 97.3851 71.1221H76.6281C77.3406 68.8874 77.5379 66.5916 77.199 64.4138H98.4545C98.9254 64.4138 99.3629 64.0471 99.4351 63.5957C99.5073 63.143 99.1851 62.7749 98.7157 62.7749H76.8337C76.3393 61.0902 75.4962 59.5124 74.2893 58.1332C71.699 55.1818 67.9226 53.7054 63.9115 53.7054C61.5226 53.7054 59.0518 54.2291 56.6962 55.2749L57.8809 47.8429H71.7254L73.8559 34.4888L74.1323 34.2568ZM94.4615 89.4541C94.9323 89.4541 95.3698 89.0874 95.4434 88.6332C95.5157 88.1818 95.1934 87.8152 94.724 87.8152H61.7587C61.2906 87.8152 60.8518 88.1818 60.7795 88.6332C60.7073 89.086 61.0295 89.4541 61.4976 89.4541H94.4615ZM99.7865 56.0679C100.257 56.0679 100.695 55.7013 100.767 55.2499C100.839 54.7971 100.517 54.4291 100.048 54.4291H77.7018C77.2323 54.4291 76.7948 54.7957 76.7226 55.2499C76.6504 55.7013 76.9698 56.0679 77.4406 56.0679H99.7865Z" fill="#F7F9FC"/>
<path d="M102.032 101.946H49.3013C49.2097 101.946 49.1236 101.905 49.0638 101.836C49.0041 101.767 48.9791 101.675 48.993 101.585L52.0652 82.3263C52.0805 82.2277 52.143 82.1416 52.2333 82.0971C52.3222 82.0513 52.4291 82.0527 52.518 82.0985C54.4597 83.1041 56.7333 83.6346 59.0944 83.6346C62.3486 83.6346 65.6111 82.6694 68.5291 80.843C68.5791 80.8124 68.6361 80.7957 68.6944 80.7957H95.7916C96.1083 80.7957 96.4166 80.5402 96.4638 80.2388C96.4833 80.1166 96.4555 80.0027 96.3847 79.9194C96.3097 79.8305 96.1916 79.7819 96.0527 79.7819H70.9402C70.8083 79.7819 70.6916 79.6999 70.6472 79.5763C70.6027 79.4527 70.6388 79.3152 70.7388 79.2305C72.9138 77.3971 74.6374 75.1166 75.7222 72.636C75.7722 72.5221 75.8847 72.4485 76.0083 72.4485H97.1236C97.4402 72.4485 97.7486 72.1944 97.7958 71.893C97.8152 71.7694 97.7875 71.6555 97.7166 71.5721C97.6416 71.4832 97.5236 71.4346 97.3847 71.4346H76.6277C76.5277 71.4346 76.4347 71.3874 76.3749 71.3069C76.3166 71.2263 76.2999 71.1221 76.3291 71.0277C77.0249 68.8457 77.218 66.5749 76.8888 64.4624C76.8749 64.3721 76.9013 64.2805 76.9597 64.211C77.018 64.1416 77.1055 64.1013 77.1972 64.1013H98.4527C98.7694 64.1013 99.0777 63.8471 99.1249 63.5457C99.1444 63.4221 99.1166 63.3082 99.0458 63.2249C98.9708 63.136 98.8527 63.0874 98.7138 63.0874H76.8333C76.6944 63.0874 76.5722 62.9957 76.5333 62.8624C76.0388 61.1749 75.2041 59.6527 74.0527 58.3388C71.6069 55.5527 68.0055 54.018 63.9097 54.018C61.543 54.018 59.0916 54.5513 56.8208 55.561C56.7166 55.6069 56.5944 55.593 56.5027 55.5235C56.4111 55.4541 56.3666 55.3402 56.3847 55.2263L57.5694 47.7944C57.593 47.643 57.7249 47.5305 57.8777 47.5305H71.4555L73.543 34.4388C73.5541 34.3652 73.593 34.2971 73.6499 34.2485L73.9277 34.0138C73.9847 33.9666 74.0555 33.9402 74.1291 33.9402H112.778C112.869 33.9402 112.956 33.9805 113.015 34.0499C113.075 34.1194 113.1 34.211 113.086 34.3013L102.34 101.679C102.317 101.835 102.186 101.946 102.032 101.946ZM49.6666 101.321H101.765L112.411 34.568H74.2458L74.1444 34.6541L72.0333 47.8944C72.0097 48.0457 71.8777 48.1582 71.725 48.1582H58.1472L57.093 54.768C59.2944 53.868 61.6388 53.3944 63.9111 53.3944C68.1888 53.3944 71.9583 55.0041 74.5236 57.9277C75.6833 59.2527 76.5375 60.7763 77.0652 62.4624H98.7166C99.0361 62.4624 99.3305 62.593 99.5236 62.8194C99.7152 63.0444 99.7944 63.3374 99.7444 63.6444C99.6472 64.2513 99.0805 64.7263 98.4541 64.7263H77.5583C77.8111 66.6971 77.6361 68.7846 77.0486 70.8096H97.3847C97.7041 70.8096 97.9986 70.9402 98.1916 71.1666C98.3833 71.3916 98.4624 71.6846 98.4124 71.9916C98.3152 72.5985 97.7486 73.0735 97.1222 73.0735H76.2111C75.193 75.3263 73.668 77.411 71.768 79.1569H96.0527C96.3722 79.1569 96.6666 79.2874 96.8597 79.5138C97.0513 79.7388 97.1291 80.0305 97.0805 80.3374C96.9833 80.9444 96.4166 81.4207 95.7902 81.4207H68.7833C65.7847 83.2791 62.4361 84.2596 59.093 84.2596C56.7861 84.2596 54.5569 83.7721 52.6138 82.8444L49.6666 101.321ZM94.4611 89.7666H61.4972C61.1791 89.7666 60.8847 89.6374 60.6916 89.4096C60.4999 89.1846 60.4208 88.8916 60.4708 88.5832C60.568 87.9763 61.1333 87.5013 61.7583 87.5013H94.7222C95.0416 87.5013 95.3361 87.6319 95.5291 87.8582C95.7208 88.0832 95.7986 88.3749 95.7499 88.6819C95.6541 89.2902 95.0875 89.7666 94.4611 89.7666ZM61.7583 88.1277C61.443 88.1277 61.1361 88.3819 61.0874 88.6832C61.068 88.8069 61.0958 88.9221 61.1666 89.0055C61.2416 89.0944 61.3597 89.143 61.4958 89.143H94.4597C94.7763 89.143 95.0847 88.8874 95.1319 88.586C95.1513 88.4638 95.1236 88.3499 95.0527 88.2666C94.9777 88.1777 94.8597 88.1291 94.7208 88.1291H61.7583V88.1277ZM99.7861 56.3805H77.4402C77.1208 56.3805 76.8277 56.2513 76.6347 56.0249C76.443 55.7999 76.3652 55.5082 76.4138 55.2013C76.5111 54.593 77.0763 54.118 77.7013 54.118H100.047C100.367 54.118 100.661 54.2485 100.854 54.4749C101.046 54.6999 101.125 54.993 101.075 55.2999C100.979 55.9055 100.412 56.3805 99.7861 56.3805ZM77.7013 54.7416C77.3861 54.7416 77.0791 54.9971 77.0305 55.2985C77.0111 55.4221 77.0388 55.536 77.1097 55.618C77.1847 55.7055 77.3013 55.7541 77.4402 55.7541H99.7861C100.103 55.7541 100.411 55.4999 100.458 55.1985C100.478 55.0749 100.45 54.961 100.379 54.8777C100.304 54.7888 100.186 54.7402 100.047 54.7402H77.7013V54.7416Z" fill="#F9FAFB"/>
<g opacity="0.5">
<g opacity="0.6">
<path d="M55.7101 61.447L55.3782 63.5317C55.3268 63.5706 55.2754 63.6095 55.2254 63.6526C54.0962 64.5942 53.8532 66.1248 54.681 67.0679C54.7171 67.1095 54.756 67.1498 54.7962 67.1873L53.3574 76.2067C53.2546 76.1012 53.1532 75.9928 53.056 75.8817C51.3476 73.9331 50.7449 71.379 51.1532 68.8262C51.5601 66.272 52.9768 63.7192 55.3073 61.772C55.4379 61.6609 55.574 61.5526 55.7101 61.447Z" fill="#D0D5DD"/>
</g>
</g>
<path d="M97.3852 71.1221C97.856 71.1221 98.1768 71.4887 98.1046 71.9429C98.0324 72.3943 97.5935 72.761 97.1241 72.761H76.0088C76.2463 72.2207 76.4532 71.6735 76.6268 71.1221H97.3852Z" fill="#D0D5DD"/>
<path d="M97.1243 73.0735H76.009C75.9034 73.0735 75.8048 73.0208 75.7479 72.9319C75.6909 72.843 75.6812 72.7319 75.7229 72.636C75.9576 72.0999 76.1618 71.5596 76.3298 71.0291C76.3701 70.8985 76.4909 70.811 76.6284 70.811H97.3854C97.7048 70.811 97.9993 70.9416 98.1923 71.168C98.384 71.393 98.4632 71.686 98.4132 71.993C98.3173 72.5985 97.7507 73.0735 97.1243 73.0735ZM76.4812 72.4485H97.1243C97.4409 72.4485 97.7493 72.1944 97.7965 71.893C97.816 71.7694 97.7882 71.6555 97.7173 71.5721C97.6423 71.4833 97.5243 71.4346 97.3854 71.4346H76.8548C76.7437 71.7708 76.6187 72.1096 76.4812 72.4485Z" fill="#D0D5DD"/>
<path d="M96.0545 79.4678C96.5253 79.4678 96.8461 79.8344 96.7739 80.2858C96.7017 80.7386 96.2628 81.1067 95.792 81.1067H68.6934C69.4447 80.6372 70.1753 80.1081 70.8767 79.5219C70.8975 79.5039 70.9198 79.4858 70.9406 79.4692H96.0545V79.4678Z" fill="#D0D5DD"/>
<path d="M95.7918 81.4192H68.6932C68.5543 81.4192 68.4307 81.3276 68.3932 81.1929C68.3543 81.0595 68.4098 80.9151 68.5279 80.8415C69.2737 80.3748 69.9959 79.8498 70.6765 79.2817L70.7348 79.2331C70.7918 79.1859 70.8668 79.1567 70.9404 79.1567H96.0543C96.3737 79.1567 96.6682 79.2873 96.8612 79.5137C97.0529 79.7387 97.1307 80.0303 97.0821 80.3373C96.9848 80.9428 96.4195 81.4192 95.7918 81.4192ZM69.7293 80.7942H95.7918C96.1084 80.7942 96.4168 80.5387 96.464 80.2373C96.4834 80.1151 96.4557 80.0012 96.3848 79.9178C96.3098 79.829 96.1918 79.7803 96.0529 79.7803H71.0529C70.6279 80.1359 70.1848 80.4748 69.7293 80.7942Z" fill="#D0D5DD"/>
<path d="M115.932 38.5568L115.438 41.6624L115.342 42.261L105.282 105.335H52.017L49.3018 101.633H102.032L112.188 37.961L112.78 34.2568L115.932 38.5568Z" fill="#E4E7EC"/>
<path d="M105.283 105.647H52.0189C51.9189 105.647 51.8258 105.6 51.7675 105.519L49.0508 101.818C48.9814 101.724 48.9703 101.597 49.0245 101.492C49.0772 101.386 49.1856 101.321 49.3036 101.321H101.768L111.881 37.9111L112.473 34.2069C112.493 34.0819 112.586 33.9819 112.708 33.9527C112.831 33.9236 112.959 33.9694 113.033 34.0722L116.186 38.3722C116.236 38.4388 116.255 38.5236 116.243 38.6055L115.652 42.3097L105.591 105.385C105.566 105.536 105.436 105.647 105.283 105.647ZM52.1758 105.022H105.015L115.034 42.2111L115.604 38.6361L112.97 35.0444L112.497 38.0097L102.341 101.682C102.318 101.833 102.186 101.946 102.033 101.946H49.9189L52.1758 105.022Z" fill="#F9FAFB"/>
<path d="M108.53 109.039L112.033 113.814H59.2996L55.7969 109.039H108.53Z" fill="#D0D5DD"/>
<path d="M112.033 114.126H59.3001C59.2001 114.126 59.1071 114.079 59.0487 113.999L55.546 109.224C55.4765 109.129 55.4654 109.003 55.5196 108.897C55.5724 108.792 55.6807 108.726 55.7987 108.726H108.532C108.632 108.726 108.725 108.774 108.783 108.854L112.286 113.629C112.356 113.724 112.367 113.85 112.313 113.955C112.258 114.06 112.152 114.126 112.033 114.126ZM59.4585 113.501H111.417L108.372 109.351H56.414L59.4585 113.501Z" fill="#F9FAFB"/>
<path d="M119.277 41.6624L108.531 109.039H55.7979L56.3881 105.335H105.283L115.437 41.6624H119.277Z" fill="#F7F9FC"/>
<path d="M108.531 109.351H55.7974C55.7058 109.351 55.6196 109.311 55.5599 109.242C55.5002 109.172 55.4752 109.08 55.4891 108.99L56.0794 105.287C56.103 105.136 56.2349 105.023 56.3877 105.023H105.015L115.128 41.6137C115.152 41.4624 115.284 41.3499 115.436 41.3499H119.277C119.368 41.3499 119.454 41.3901 119.514 41.4596C119.574 41.529 119.599 41.6207 119.585 41.711L108.839 109.087C108.815 109.239 108.685 109.351 108.531 109.351ZM56.1641 108.726H108.264L118.91 41.9749H115.703L105.59 105.385C105.567 105.536 105.435 105.648 105.282 105.648H56.6544L56.1641 108.726Z" fill="#F9FAFB"/>
<path d="M119.276 41.6624L122.779 46.4374L112.033 113.814L108.53 109.039L119.276 41.6624Z" fill="#E4E7EC"/>
<path d="M112.034 114.126C111.935 114.126 111.842 114.08 111.782 113.999L108.279 109.224C108.229 109.157 108.21 109.072 108.222 108.989L118.968 41.6124C118.988 41.4874 119.081 41.3874 119.203 41.3583C119.327 41.3291 119.454 41.3749 119.528 41.4777L123.031 46.2527C123.081 46.3194 123.1 46.4041 123.088 46.4874L112.342 113.864C112.322 113.989 112.229 114.089 112.107 114.118C112.082 114.124 112.057 114.126 112.034 114.126ZM108.86 108.958L111.842 113.025L122.449 46.5166L119.467 42.4499L108.86 108.958Z" fill="#F9FAFB"/>
<path d="M50.4881 81.1804L32.2909 96.3929C32.2479 96.429 32.2034 96.461 32.159 96.4943C32.1381 96.5096 32.1187 96.5249 32.0979 96.5401C32.0617 96.5651 32.0242 96.5874 31.9881 96.611C31.9617 96.6276 31.9354 96.6457 31.909 96.661C31.8895 96.6721 31.8687 96.6818 31.8492 96.6929C31.8006 96.7193 31.7506 96.7457 31.7006 96.7679C31.6826 96.7763 31.6645 96.7832 31.6465 96.7901C31.5798 96.8193 31.5131 96.8443 31.4465 96.8665C31.4159 96.8776 31.384 96.8874 31.352 96.8971C31.327 96.904 31.3006 96.9124 31.2756 96.9179C31.2354 96.9276 31.1951 96.9374 31.1548 96.9457C31.1298 96.9513 31.1048 96.9554 31.0812 96.9596C31.0367 96.9665 30.9937 96.9721 30.9492 96.9776C30.9284 96.9804 30.9076 96.9832 30.8867 96.9846C30.8229 96.9901 30.7576 96.9929 30.6937 96.9929C30.1492 96.9929 29.6381 96.7929 29.2867 96.3929L28.6381 95.654C28.6062 95.6179 28.577 95.5804 28.5479 95.5415L32.0506 100.317C32.0784 100.355 32.109 100.393 32.1409 100.429L32.7895 101.168C33.1409 101.568 33.652 101.768 34.1965 101.768C34.2604 101.768 34.3242 101.765 34.3895 101.76C34.4104 101.758 34.4312 101.754 34.452 101.753C34.4965 101.747 34.5395 101.742 34.584 101.735C34.609 101.73 34.634 101.725 34.6576 101.721C34.6979 101.712 34.7381 101.704 34.7784 101.693C34.8048 101.686 34.8298 101.679 34.8548 101.672C34.8729 101.667 34.8923 101.662 34.9104 101.657C34.9229 101.653 34.9354 101.647 34.9492 101.642C35.0173 101.619 35.084 101.593 35.1492 101.565C35.1617 101.56 35.1756 101.555 35.1895 101.55C35.1951 101.547 35.1992 101.544 35.2048 101.543C35.2548 101.519 35.3034 101.494 35.3534 101.468C35.3715 101.458 35.3895 101.451 35.4076 101.44C35.4104 101.439 35.4117 101.437 35.4131 101.436C35.4395 101.421 35.4659 101.403 35.4923 101.386C35.5256 101.365 35.5604 101.346 35.5937 101.322C35.5965 101.321 35.5992 101.318 35.602 101.315C35.6229 101.301 35.6423 101.285 35.6631 101.269C35.6965 101.244 35.7312 101.221 35.7631 101.194C35.7742 101.186 35.784 101.178 35.7951 101.168L53.9923 85.9554L50.4881 81.1804Z" fill="#667185"/>
<path d="M34.1947 102.08C33.5364 102.08 32.953 101.829 32.553 101.374L31.9044 100.635C31.8669 100.592 31.8308 100.547 31.7975 100.501L28.2961 95.7291C28.2961 95.7277 28.2947 95.7277 28.2947 95.7263C28.1933 95.5874 28.2225 95.3916 28.3614 95.2902C28.5003 95.1888 28.6961 95.2179 28.7975 95.3568L28.7989 95.3596C28.8211 95.3902 28.8447 95.4193 28.8697 95.4485L29.5183 96.1874C29.7975 96.5054 30.2142 96.6804 30.6905 96.6804C30.7461 96.6804 30.8003 96.6777 30.8558 96.6721L30.9114 96.6652C30.9489 96.661 30.9864 96.6568 31.0253 96.6499C31.0405 96.6471 31.0572 96.6443 31.0725 96.6402L31.0905 96.636C31.1253 96.6291 31.1614 96.6207 31.1961 96.6124C31.2183 96.6068 31.2419 96.5999 31.2642 96.5943C31.2919 96.586 31.3183 96.5777 31.3461 96.5679C31.4044 96.5485 31.4628 96.5263 31.5211 96.5013L31.5683 96.4818C31.6128 96.461 31.6558 96.4388 31.6989 96.4152L31.7517 96.3874C31.7628 96.3804 31.7753 96.3735 31.7864 96.3652L31.8447 96.3277C31.8697 96.3124 31.8933 96.2971 31.9183 96.2804C31.9267 96.2749 31.935 96.2679 31.9433 96.261L31.9836 96.2304C32.0183 96.2041 32.0544 96.1791 32.0878 96.1499L50.285 80.9374C50.3517 80.8818 50.4364 80.8568 50.5225 80.8666C50.6086 80.8763 50.685 80.9221 50.7364 80.9916L54.2392 85.7666C54.3364 85.8999 54.3141 86.086 54.1878 86.1916L35.9572 101.437C35.928 101.461 35.8989 101.483 35.8683 101.504L35.828 101.533C35.8114 101.546 35.7947 101.558 35.778 101.571C35.7405 101.597 35.7114 101.615 35.6822 101.633L35.6308 101.665C35.6114 101.678 35.5919 101.69 35.5725 101.701C35.5669 101.705 35.5614 101.708 35.5558 101.711C35.5433 101.718 35.5267 101.726 35.5114 101.733L35.4989 101.739C35.4433 101.768 35.3892 101.797 35.3322 101.824C35.3336 101.824 35.3239 101.828 35.3155 101.832C35.3017 101.837 35.2864 101.844 35.2711 101.85C35.1961 101.882 35.1211 101.911 35.0461 101.936C35.0336 101.942 35.0169 101.947 35.0017 101.953C34.9878 101.957 34.9711 101.961 34.9558 101.965L34.9405 101.969C34.9114 101.978 34.8822 101.986 34.853 101.993C34.8072 102.004 34.7628 102.015 34.7169 102.024L34.7017 102.026C34.678 102.03 34.6558 102.036 34.6322 102.04C34.5822 102.049 34.5322 102.055 34.4836 102.061L34.4655 102.064C34.4475 102.067 34.4308 102.068 34.4128 102.069C34.335 102.078 34.2642 102.08 34.1947 102.08ZM30.1919 97.2554L32.303 100.133C32.3253 100.164 32.3503 100.194 32.3753 100.223L33.0239 100.962C33.335 101.318 33.8239 101.494 34.3614 101.448L34.4155 101.442C34.453 101.437 34.4919 101.433 34.5294 101.426C34.5447 101.424 34.5614 101.421 34.5767 101.417L34.5933 101.414C34.6294 101.407 34.6642 101.399 34.6989 101.39C34.7211 101.385 34.7433 101.378 34.7669 101.372L34.8142 101.36C34.8225 101.355 34.8364 101.35 34.8489 101.346C34.9072 101.326 34.9669 101.304 35.0253 101.278C35.0364 101.272 35.0489 101.268 35.0614 101.264L35.0711 101.26C35.1169 101.239 35.16 101.215 35.2044 101.192C35.2155 101.185 35.228 101.179 35.2392 101.174L35.2489 101.168C35.2517 101.165 35.2558 101.164 35.2586 101.162C35.2683 101.157 35.2808 101.148 35.2933 101.142L35.3586 101.101C35.378 101.09 35.3975 101.078 35.4155 101.065C35.4322 101.053 35.4405 101.047 35.4489 101.04L35.5017 101C35.5225 100.985 35.5433 100.969 35.5642 100.953L35.5919 100.93L53.5655 85.9054L50.4336 81.6346L32.4905 96.6332C32.4461 96.6693 32.4017 96.7041 32.3558 96.7374L32.3253 96.761C32.3086 96.7735 32.2933 96.786 32.2767 96.7971C32.2433 96.8193 32.21 96.8402 32.1767 96.861L32.128 96.8916C32.1072 96.9054 32.0864 96.9179 32.0655 96.9304C32.0489 96.9402 32.0322 96.9485 32.0155 96.9568L31.9975 96.9666C31.9433 96.9957 31.8878 97.0249 31.8322 97.0513C31.8169 97.0582 31.8017 97.0652 31.785 97.0707L31.7697 97.0777C31.6961 97.1096 31.6211 97.1388 31.5447 97.1638C31.51 97.1763 31.4739 97.1874 31.4392 97.1971C31.41 97.2054 31.3808 97.2138 31.3517 97.2207C31.3072 97.2318 31.2614 97.2429 31.2155 97.2513L31.2003 97.2541C31.178 97.2582 31.1544 97.2638 31.1322 97.2666C31.0822 97.2749 31.0336 97.2818 30.9836 97.2874L30.9642 97.2902C30.9475 97.2929 30.9294 97.2943 30.9114 97.2957C30.8336 97.3027 30.7614 97.3054 30.6919 97.3054C30.5197 97.3054 30.3517 97.2888 30.1919 97.2554Z" fill="#F9FAFB"/>
<path d="M77.1991 64.4137C77.1129 63.8596 76.9907 63.311 76.8324 62.7748C76.3393 61.0887 75.4949 59.5123 74.288 58.1332C71.6977 55.1818 67.9213 53.7068 63.9102 53.7068C61.5199 53.7068 59.0491 54.229 56.6949 55.2776C55.0921 55.9901 53.5449 56.9429 52.1143 58.1387C45.7963 63.4193 43.9116 71.6415 47.2991 77.5443L29.0991 92.7596C28.1435 93.5568 27.9379 94.8526 28.6379 95.654L29.2866 96.3929C29.6366 96.7929 30.1504 96.9943 30.6921 96.9943C31.2366 96.9943 31.8129 96.7929 32.2893 96.3929L50.4879 81.1818C51.0824 81.6332 51.7129 82.0332 52.3727 82.3748C54.3949 83.4207 56.7032 83.9457 59.0935 83.9457C62.3074 83.9457 65.6699 83.0012 68.6935 81.1068C69.4463 80.6373 70.1754 80.1082 70.9421 79.4679C73.2352 77.5332 74.9379 75.2123 76.0102 72.7582C76.2449 72.2207 76.4532 71.6707 76.6268 71.1193C77.3393 68.8887 77.5379 66.5901 77.1991 64.4137ZM67.7185 75.9165C65.3754 77.8762 62.5588 78.854 59.8977 78.854C57.2379 78.854 54.7338 77.8748 53.0171 75.9165C49.5796 71.9998 50.5921 65.6526 55.2768 61.7387C57.6199 59.779 60.4366 58.8012 63.0977 58.8012C65.7574 58.8012 68.2616 59.7804 69.9782 61.7387C70.0282 61.7957 70.0755 61.8512 70.1199 61.9082C70.3435 62.1776 70.5491 62.4596 70.7324 62.7471C71.0643 63.2693 71.3268 63.8179 71.5296 64.3929C71.6338 64.6846 71.7199 64.9832 71.788 65.286C72.163 66.9068 72.0685 68.6512 71.5296 70.3429C71.4463 70.6068 71.3504 70.8721 71.2449 71.1332C71.0185 71.6943 70.7435 72.2457 70.4199 72.7804C70.2643 73.0373 70.0991 73.2915 69.9199 73.5415C69.3171 74.3957 68.5796 75.1985 67.7185 75.9165Z" fill="#98A2B3"/>
<path d="M30.692 97.3068C30.0337 97.3068 29.4504 97.0554 29.0518 96.5985L28.4031 95.8596C28.0448 95.4485 27.8726 94.9082 27.917 94.3387C27.9712 93.6582 28.3281 92.9943 28.899 92.5193L46.9004 77.4707C45.3156 74.5679 44.9115 71.0512 45.7642 67.5346C46.6462 63.8998 48.8309 60.4776 51.9156 57.8985C53.3379 56.7096 54.9045 55.7318 56.5698 54.9915C58.917 53.9471 61.4559 53.3943 63.9129 53.3943C68.1906 53.3943 71.9601 55.004 74.5254 57.9276C75.7393 59.3137 76.617 60.9151 77.1351 62.6873C77.2948 63.2304 77.4212 63.7943 77.5101 64.3651C77.8545 66.5721 77.6518 68.9415 76.9268 71.2151C76.7531 71.7665 76.542 72.3276 76.299 72.8832C75.1768 75.4512 73.3934 77.8096 71.1448 79.7068C70.3837 80.3429 69.6365 80.8873 68.8601 81.3707C65.8462 83.2582 62.4698 84.2568 59.0948 84.2568C56.6351 84.2568 54.2615 83.7012 52.2309 82.6512C51.6337 82.3429 51.0531 81.9818 50.5004 81.579L32.4893 96.6332C31.9712 97.0665 31.3337 97.3068 30.692 97.3068ZM63.9115 54.0193C61.542 54.0193 59.0906 54.5526 56.8226 55.5623C55.2101 56.279 53.6934 57.2262 52.3156 58.3776C46.1851 63.5012 44.1893 71.4971 47.5712 77.3873C47.6462 77.5193 47.617 77.6859 47.5004 77.7832L29.299 92.9985C28.8573 93.3679 28.5795 93.8735 28.5393 94.3873C28.5073 94.7887 28.6254 95.1651 28.8726 95.4471L29.5212 96.1859C29.8004 96.5054 30.2156 96.6804 30.692 96.6804C31.1865 96.6804 31.6837 96.4929 32.0893 96.1526L50.2879 80.9415C50.4004 80.8485 50.5615 80.8443 50.6781 80.9332C51.2601 81.3762 51.8781 81.7679 52.517 82.0971C54.4587 83.1012 56.7337 83.6332 59.0948 83.6332C62.3518 83.6332 65.6143 82.6679 68.5281 80.8429C69.2795 80.3735 70.0045 79.8457 70.742 79.229C72.917 77.3957 74.6393 75.1151 75.724 72.6346C75.9587 72.0984 76.1615 71.5582 76.3295 71.0276C77.0254 68.8443 77.2198 66.5748 76.8906 64.4623C76.8059 63.9193 76.6865 63.3818 76.5337 62.8651C76.042 61.1804 75.2073 59.6582 74.0531 58.3401C71.6087 55.554 68.0059 54.0193 63.9115 54.0193ZM59.8976 79.1665C57.0295 79.1665 54.5018 78.086 52.7809 76.1221C51.2448 74.3721 50.5045 72.0554 50.6948 69.5971C50.9281 66.5818 52.5254 63.629 55.0754 61.4985C57.3976 59.5568 60.2462 58.4873 63.0976 58.4873C65.9656 58.4873 68.4934 59.5679 70.2143 61.5318C70.267 61.5915 70.317 61.6512 70.3656 61.7123C70.5906 61.9832 70.8045 62.2762 70.9976 62.5776C71.3323 63.1026 71.6115 63.6776 71.8268 64.286C71.9337 64.586 72.024 64.8985 72.0948 65.2151C72.4795 66.8748 72.3879 68.6804 71.8295 70.436C71.742 70.711 71.6434 70.9846 71.5365 71.2498C71.3045 71.8262 71.0198 72.3943 70.6893 72.9415C70.5212 73.2179 70.3545 73.4735 70.1768 73.7235C69.5434 74.6165 68.7837 75.4346 67.9198 76.1568C65.5976 78.0971 62.749 79.1665 59.8976 79.1665ZM63.0976 59.1123C60.3934 59.1123 57.6865 60.1304 55.4767 61.9776C53.0545 64.0012 51.5379 66.7971 51.3184 69.6457C51.1406 71.9346 51.8281 74.0873 53.2518 75.7096C54.8518 77.5359 57.2129 78.5415 59.8976 78.5415C62.6018 78.5415 65.3087 77.5235 67.5184 75.6762C68.342 74.9887 69.0643 74.2096 69.667 73.361C69.8351 73.1235 69.9948 72.8818 70.1545 72.6179C70.467 72.0998 70.7365 71.561 70.9573 71.0151C71.0587 70.7651 71.1518 70.5068 71.2337 70.2471C71.7573 68.5985 71.8448 66.9068 71.4851 65.354C71.4198 65.061 71.3365 64.7721 71.2379 64.4957C71.0379 63.9304 70.7795 63.3985 70.4712 62.9137C70.2934 62.6346 70.0948 62.3623 69.8823 62.1068C69.8365 62.0498 69.792 61.9971 69.7462 61.9443C68.1434 60.1179 65.7823 59.1123 63.0976 59.1123Z" fill="#F9FAFB"/>
<path d="M60.2786 66.7555C60.2508 66.6763 60.2161 66.6013 60.1689 66.5305C60.1397 66.4819 60.105 66.4361 60.0661 66.3916C59.8314 66.125 59.4897 65.9902 59.1258 65.9902C59.0966 65.9902 59.0675 65.9916 59.0369 65.993C58.6994 66.0125 58.3508 66.1458 58.0564 66.3916C57.6841 66.7027 57.4814 67.1263 57.4703 67.5319C57.4619 67.8236 57.5522 68.1055 57.748 68.3291C57.9828 68.5958 58.3244 68.7305 58.6883 68.7305C59.0522 68.7305 59.4369 68.5972 59.7564 68.3291C59.9078 68.2013 60.0328 68.0569 60.1272 67.9C60.1716 67.8277 60.2078 67.7527 60.2397 67.675C60.3647 67.3694 60.38 67.043 60.2786 66.7555Z" fill="#F7F9FC"/>
<path d="M59.1403 64.293C59.0917 64.1541 59.0264 64.0222 58.9473 63.8972C58.8931 63.8125 58.8348 63.7319 58.7667 63.6541C58.3528 63.1819 57.7487 62.9458 57.1084 62.9458C56.5237 62.9458 55.9098 63.1416 55.3778 63.5333C55.3264 63.5722 55.2751 63.6111 55.2251 63.6527C54.0959 64.5944 53.8528 66.125 54.6806 67.068C54.7181 67.1097 54.7556 67.15 54.7959 67.1875C55.2014 67.5791 55.7542 67.7736 56.3389 67.7736C56.7139 67.7736 57.1028 67.693 57.4737 67.5319C57.7362 67.418 57.9889 67.2625 58.2237 67.068C58.4903 66.843 58.7098 66.5875 58.8751 66.3125C58.9376 66.2083 58.9931 66.1014 59.0389 65.993C59.0501 65.9666 59.0612 65.9416 59.0709 65.9152C59.2903 65.375 59.3167 64.8 59.1403 64.293Z" fill="#F7F9FC"/>
<path d="M105.282 105.335H52.017L49.3018 101.633H102.032L105.282 105.335Z" fill="#D0D5DD"/>
<path d="M105.283 105.647H52.0189C51.9189 105.647 51.8258 105.6 51.7675 105.519L49.0508 101.818C48.9814 101.724 48.9703 101.597 49.0245 101.492C49.0772 101.386 49.1856 101.321 49.3036 101.321H102.034C102.124 101.321 102.209 101.36 102.269 101.428L105.519 105.129C105.599 105.221 105.619 105.353 105.569 105.464C105.516 105.576 105.405 105.647 105.283 105.647ZM52.1758 105.022H104.591L101.89 101.946H49.9175L52.1758 105.022Z" fill="#F9FAFB"/>
<path d="M98.715 62.7749C99.1858 62.7749 99.5066 63.1416 99.4344 63.5957C99.3622 64.0471 98.9233 64.4138 98.4538 64.4138H77.1983C77.1122 63.8596 76.99 63.3096 76.833 62.7749H98.715Z" fill="#D0D5DD"/>
<path d="M98.4541 64.7263H77.1985C77.0444 64.7263 76.9138 64.6138 76.8902 64.461C76.8069 63.9207 76.6874 63.3832 76.5333 62.8624C76.5055 62.768 76.5235 62.6652 76.5833 62.5874C76.6416 62.5082 76.7346 62.4624 76.8332 62.4624H98.7166C99.036 62.4624 99.3305 62.593 99.5235 62.8193C99.7152 63.0443 99.7944 63.3374 99.7444 63.6443C99.6471 64.2513 99.0805 64.7263 98.4541 64.7263ZM77.4638 64.1013H98.4541C98.7708 64.1013 99.0791 63.8471 99.1263 63.5457C99.1458 63.4221 99.118 63.3082 99.0471 63.2249C98.9721 63.136 98.8541 63.0874 98.7152 63.0874H77.243C77.3305 63.4221 77.4041 63.761 77.4638 64.1013Z" fill="#D0D5DD"/>
<path d="M100.048 54.429C100.519 54.429 100.84 54.7956 100.767 55.2498C100.695 55.7012 100.256 56.0678 99.7869 56.0678H77.4411C76.9717 56.0678 76.6508 55.7012 76.723 55.2498C76.7953 54.797 77.2328 54.429 77.7022 54.429H100.048Z" fill="#D0D5DD"/>
<path d="M99.7867 56.3804H77.4409C77.1214 56.3804 76.8284 56.2513 76.6353 56.0249C76.4437 55.7999 76.3659 55.5082 76.4145 55.2013C76.5117 54.5943 77.077 54.1179 77.702 54.1179H100.048C100.367 54.1179 100.662 54.2485 100.855 54.4749C101.046 54.6999 101.126 54.9929 101.076 55.2999C100.98 55.9054 100.413 56.3804 99.7867 56.3804ZM77.702 54.7415C77.3867 54.7415 77.0798 54.9971 77.0312 55.2985C77.0117 55.4221 77.0395 55.536 77.1103 55.6193C77.1853 55.7068 77.302 55.7554 77.4409 55.7554H99.7867C100.103 55.7554 100.412 55.5013 100.459 55.1999C100.478 55.0763 100.451 54.9624 100.38 54.879C100.305 54.7901 100.187 54.7415 100.048 54.7415H77.702Z" fill="#D0D5DD"/>
<path d="M94.7227 87.8152C95.1935 87.8152 95.5144 88.1818 95.4421 88.6332C95.3699 89.086 94.931 89.4541 94.4602 89.4541H61.4977C61.0296 89.4541 60.7074 89.0874 60.7796 88.6332C60.8519 88.1818 61.2908 87.8152 61.7588 87.8152H94.7227Z" fill="#D0D5DD"/>
<path d="M94.4615 89.7666H61.4976C61.1796 89.7666 60.8865 89.6374 60.6935 89.411C60.5018 89.186 60.4226 88.893 60.4726 88.5846C60.5699 87.9777 61.1351 87.5027 61.7601 87.5027H94.7227C95.0421 87.5027 95.3365 87.6332 95.5296 87.8596C95.7213 88.0846 95.799 88.3763 95.7504 88.6832C95.6546 89.2902 95.0879 89.7666 94.4615 89.7666ZM61.7588 88.1277C61.4435 88.1277 61.1365 88.3819 61.0879 88.6832C61.0685 88.8069 61.0963 88.9221 61.1671 89.0055C61.2421 89.0944 61.3588 89.143 61.4963 89.143H94.4602C94.7768 89.143 95.0851 88.8874 95.1324 88.586C95.1518 88.4638 95.124 88.3499 95.0532 88.2666C94.9782 88.1777 94.8602 88.1291 94.7213 88.1291H61.7588V88.1277Z" fill="#D0D5DD"/>
<path d="M80.7012 69.1889C80.6762 69.0292 80.6484 68.8695 80.6179 68.7112C80.6151 68.6959 80.6123 68.6806 80.6095 68.6653C80.604 68.6362 80.5956 68.607 80.5901 68.5764C80.5637 68.4473 80.5345 68.3181 80.504 68.1903C80.4929 68.1431 80.4818 68.0945 80.4693 68.0473C80.4276 67.8806 80.3831 67.7153 80.3359 67.5514C80.2706 67.3278 80.1956 67.107 80.1179 66.8876C80.1081 66.8598 80.1012 66.832 80.0901 66.8042C80.0804 66.7751 80.0665 66.7473 80.0567 66.7195C79.9831 66.5195 79.9054 66.3223 79.8206 66.1264C79.8137 66.1084 79.8068 66.0917 79.7984 66.0737C79.7068 65.8639 79.6068 65.657 79.504 65.4514C79.4915 65.4278 79.4818 65.4042 79.4706 65.3806C79.454 65.3473 79.4331 65.3139 79.4165 65.2806C79.3456 65.1459 79.272 65.0139 79.197 64.8806C79.1651 64.8264 79.1359 64.7709 79.1026 64.7167C78.9956 64.5362 78.8845 64.357 78.7665 64.1806C78.7665 64.1792 78.7651 64.1792 78.7651 64.1778C78.6665 64.0306 78.5651 63.8848 78.4595 63.7403L74.9568 58.9653C75.0637 59.1098 75.1651 59.257 75.2651 59.4056C75.3831 59.582 75.4942 59.7612 75.6012 59.9417C75.6331 59.9959 75.6637 60.0514 75.6956 60.1056C75.7706 60.2376 75.8442 60.3709 75.9151 60.5042C75.9456 60.5612 75.9748 60.6181 76.004 60.6751C76.1081 60.8806 76.2067 61.0876 76.2984 61.2973C76.3054 61.3139 76.3123 61.332 76.3193 61.3501C76.404 61.5459 76.4817 61.7431 76.5554 61.9431C76.5762 61.9987 76.597 62.0556 76.6165 62.1112C76.6942 62.3306 76.7679 62.5514 76.8331 62.7751C76.8817 62.9389 76.9248 63.1042 76.9665 63.2709C76.979 63.3195 76.9901 63.3667 77.0012 63.4153C77.0317 63.5431 77.0595 63.6709 77.0859 63.8001C77.0956 63.8459 77.1054 63.8903 77.1137 63.9362C77.1442 64.0945 77.1734 64.2542 77.197 64.4139C77.5359 66.5903 77.3373 68.8876 76.6262 71.1223C76.4526 71.6737 76.2442 72.2209 76.0081 72.7612C75.9595 72.8723 75.9081 72.982 75.8581 73.0917C75.8179 73.1778 75.7776 73.2639 75.7359 73.3501C75.7012 73.4209 75.6665 73.4931 75.6318 73.5639C75.5887 73.6501 75.5443 73.7348 75.4998 73.8209C75.4637 73.8917 75.4262 73.9612 75.3887 74.0306C75.3429 74.1167 75.2956 74.2014 75.247 74.2876C75.2081 74.357 75.1693 74.4251 75.1304 74.4945C75.0804 74.5792 75.0304 74.6653 74.979 74.7501C74.9415 74.8126 74.9054 74.8737 74.8665 74.9362C74.7331 75.1514 74.5956 75.3653 74.4526 75.5764C74.4248 75.6181 74.3956 75.6598 74.3665 75.7028C74.2193 75.9181 74.0665 76.1306 73.9081 76.3417C73.8887 76.3667 73.8693 76.3917 73.8512 76.4153C73.7248 76.5806 73.5956 76.7445 73.4637 76.907C73.4276 76.9514 73.3915 76.9959 73.354 77.0417C73.204 77.2223 73.0498 77.4028 72.8915 77.5792C72.8665 77.607 72.8415 77.6334 72.8165 77.6612C72.6873 77.8042 72.5554 77.9445 72.4206 78.0848C72.3762 78.132 72.3304 78.1778 72.2845 78.2237C72.1429 78.3681 71.997 78.5126 71.8498 78.6528C71.829 78.6737 71.8081 78.6945 71.7873 78.7139C71.6984 78.7973 71.6081 78.8792 71.5179 78.9626C71.4692 79.007 71.4206 79.0528 71.3706 79.0973C71.229 79.2237 71.0859 79.3473 70.9401 79.4709C70.7581 79.6237 70.5776 79.7681 70.3984 79.9084C70.3859 79.9181 70.3734 79.9278 70.3609 79.9376C70.1929 80.0681 70.0262 80.1931 69.8595 80.3153C69.8318 80.3362 69.8026 80.357 69.7748 80.3778C69.6248 80.4862 69.4748 80.5917 69.3248 80.6931C69.1151 80.8362 68.904 80.9751 68.6929 81.1084C68.4845 81.2389 68.2748 81.3639 68.0623 81.4848C68.0068 81.5167 67.9512 81.5459 67.8956 81.5778C67.7095 81.682 67.5234 81.7834 67.3359 81.8806C67.2651 81.9167 67.1943 81.9542 67.1234 81.9903C66.9179 82.0945 66.7109 82.1931 66.5026 82.2889C66.4651 82.3056 66.429 82.3237 66.3915 82.3403C66.3429 82.3626 66.2929 82.3834 66.2442 82.4042C66.1081 82.4639 65.972 82.5237 65.8345 82.5792C65.7665 82.607 65.6984 82.6334 65.6304 82.6612C65.5109 82.7084 65.3901 82.7556 65.2706 82.8014C65.1984 82.8292 65.1248 82.8556 65.0526 82.882C64.9345 82.9251 64.8165 82.9653 64.6984 83.0056C64.6262 83.0306 64.554 83.0542 64.4804 83.0778C64.3831 83.1098 64.2845 83.1389 64.1873 83.1695C64.0679 83.2056 63.947 83.2417 63.8276 83.2764C63.7345 83.3028 63.6415 83.3278 63.547 83.3528C63.4276 83.3848 63.3095 83.4153 63.1901 83.4445C63.0956 83.4681 63.0012 83.4903 62.9081 83.5112C62.7887 83.5389 62.6693 83.5639 62.5498 83.5889C62.4568 83.6084 62.3623 83.6278 62.2692 83.6445C62.1484 83.6667 62.0276 83.6889 61.9067 83.7084C61.8151 83.7237 61.722 83.7389 61.6304 83.7528C61.5068 83.7709 61.3831 83.7876 61.2609 83.8042C61.172 83.8153 61.0817 83.8278 60.9929 83.8389C60.8637 83.8542 60.7359 83.8653 60.6081 83.8764C60.5248 83.8834 60.4401 83.8931 60.3567 83.8987C60.2151 83.9098 60.0748 83.9167 59.9345 83.9237C59.8637 83.9278 59.7942 83.932 59.7234 83.9348C59.5123 83.9431 59.3026 83.9473 59.0929 83.9473C56.7026 83.9473 54.3956 83.4237 52.372 82.3764C51.7109 82.0348 51.0804 81.6362 50.4873 81.182L53.9901 85.957C54.5831 86.4112 55.2137 86.8084 55.8748 87.1514C57.897 88.1987 60.2054 88.7223 62.5942 88.7223C62.804 88.7223 63.0137 88.7181 63.2248 88.7098C63.2956 88.707 63.3651 88.7014 63.4359 88.6987C63.5762 88.6917 63.7179 88.6848 63.8581 88.6737C63.9415 88.6667 64.0248 88.6584 64.1081 88.6514C64.2373 88.6403 64.3651 88.6278 64.4943 88.6139C64.5831 88.6042 64.672 88.5917 64.7609 88.5806C64.8845 88.5639 65.0081 88.5487 65.1318 88.5292C65.2234 88.5153 65.3165 88.5001 65.4081 88.4848C65.529 88.4639 65.6498 88.4431 65.7706 88.4209C65.8637 88.4028 65.9581 88.3848 66.0512 88.3653C66.1706 88.3403 66.2901 88.3153 66.4095 88.2876C66.504 88.2667 66.597 88.2445 66.6901 88.2209C66.8095 88.1917 66.929 88.1612 67.0484 88.1292C67.1415 88.1042 67.2345 88.0792 67.3276 88.0528C67.4484 88.0181 67.5679 87.982 67.6887 87.9459C67.7484 87.9278 67.8095 87.9112 67.8692 87.8931C67.9067 87.8806 67.9442 87.8681 67.9817 87.8556C68.054 87.832 68.1262 87.807 68.1998 87.7834C68.3179 87.7431 68.4359 87.7028 68.554 87.6598C68.6262 87.6334 68.6998 87.607 68.772 87.5792C68.8929 87.5348 69.0123 87.4876 69.1317 87.4389C69.1998 87.4112 69.2679 87.3848 69.3359 87.357C69.4734 87.3001 69.6095 87.2417 69.7456 87.182C69.7943 87.1598 69.8442 87.1403 69.8929 87.1181C69.9012 87.1139 69.9109 87.1098 69.9193 87.107C69.947 87.0945 69.9748 87.0792 70.0026 87.0667C70.2109 86.9709 70.4179 86.8723 70.6234 86.7681C70.6943 86.732 70.7651 86.6959 70.8359 86.6584C71.0234 86.5612 71.2109 86.4598 71.3956 86.3556C71.4359 86.3334 71.4762 86.3139 71.5151 86.2903C71.5304 86.282 71.547 86.2709 71.5623 86.2626C71.7734 86.1417 71.9845 86.0167 72.1929 85.8862C72.4054 85.7528 72.6151 85.6139 72.8248 85.4709C72.8442 85.4584 72.8623 85.4459 72.8818 85.4334C73.0123 85.3431 73.1442 85.2501 73.2748 85.1556C73.3026 85.1348 73.3318 85.1139 73.3595 85.0931C73.5262 84.9709 73.6929 84.8459 73.8595 84.7153C73.872 84.7056 73.8845 84.6959 73.897 84.6862C73.9859 84.6167 74.0762 84.5459 74.1651 84.4723C74.2554 84.3987 74.347 84.3237 74.4373 84.2473C74.5831 84.1237 74.7262 84.0001 74.8679 83.8737C74.9179 83.8292 74.9651 83.7848 75.0137 83.7403C75.104 83.657 75.1956 83.5751 75.2845 83.4903C75.2887 83.4862 75.2942 83.482 75.2984 83.4778C75.3151 83.4626 75.3304 83.4459 75.3456 83.4306C75.4943 83.2889 75.6387 83.1445 75.7818 83.0001C75.8276 82.9542 75.872 82.907 75.9165 82.8612C76.0512 82.7209 76.1831 82.5806 76.3123 82.4376C76.3317 82.4167 76.3526 82.3959 76.3706 82.3751C76.3762 82.3695 76.3804 82.3626 76.3859 82.357C76.5443 82.1792 76.6984 82.0001 76.8484 81.8195C76.8859 81.7751 76.922 81.7306 76.9581 81.6862C77.0901 81.5237 77.2206 81.3598 77.3456 81.1945C77.3595 81.1751 77.3762 81.157 77.3901 81.1376C77.3942 81.132 77.3984 81.1264 77.4026 81.1209C77.5609 80.9098 77.7137 80.6973 77.8609 80.482C77.8901 80.4403 77.9179 80.3987 77.947 80.357C78.0901 80.1445 78.229 79.9306 78.3623 79.7153C78.3706 79.7014 78.3804 79.6889 78.3887 79.6751C78.4179 79.6264 78.4456 79.5778 78.4748 79.5292C78.5262 79.4445 78.5762 79.3598 78.6262 79.2737C78.6665 79.2042 78.704 79.1348 78.7429 79.0667C78.7901 78.982 78.8373 78.8973 78.8831 78.8112C78.9206 78.7417 78.9581 78.6709 78.9942 78.6001C79.0387 78.5153 79.0831 78.4292 79.1248 78.3431C79.1609 78.2723 79.1956 78.2014 79.2304 78.1292C79.272 78.0431 79.3123 77.957 79.3526 77.8709C79.3692 77.8334 79.3887 77.7973 79.4054 77.7598C79.4387 77.6862 79.4706 77.6139 79.5026 77.5403C79.7401 77.0001 79.947 76.4528 80.1206 75.9014C80.8415 73.6639 81.0401 71.3667 80.7012 69.1889Z" fill="#D0D5DD"/>
<path d="M62.5944 89.0347C60.1333 89.0347 57.761 88.4791 55.7305 87.4277C55.0485 87.0749 54.3999 86.6638 53.7985 86.2041C53.7749 86.186 53.7541 86.1652 53.736 86.1402L50.2333 81.3652C50.1416 81.2402 50.1555 81.0666 50.2666 80.9569C50.3777 80.8485 50.5513 80.8374 50.6749 80.9319C51.2458 81.3694 51.8638 81.761 52.5138 82.0972C54.4555 83.1027 56.7291 83.6333 59.0902 83.6333C59.286 83.6333 59.4944 83.6291 59.7083 83.6208C59.7485 83.6194 59.7874 83.6166 59.8277 83.6138L59.9152 83.6083C60.0541 83.6013 60.1916 83.5944 60.3305 83.5833C60.3846 83.5791 60.4388 83.5735 60.4916 83.5694L60.5763 83.561C60.7055 83.5499 60.8305 83.5374 60.9541 83.5235C61.0194 83.5166 61.0846 83.5069 61.1499 83.4985L61.218 83.4902C61.3388 83.4749 61.4596 83.4583 61.5819 83.4402C61.6624 83.4277 61.7444 83.4138 61.8249 83.3999L61.8527 83.3958C61.9708 83.3763 62.0902 83.3555 62.2083 83.3333C62.2999 83.3152 62.3916 83.2972 62.4846 83.2777C62.6013 83.2541 62.7194 83.2277 62.836 83.2013C62.9291 83.1805 63.0208 83.1583 63.1138 83.136C63.2305 83.1069 63.3485 83.0777 63.4652 83.0458C63.5569 83.0208 63.6485 82.9972 63.7402 82.9708C63.8583 82.9374 63.9763 82.9013 64.0944 82.8652L64.1333 82.8527C64.2166 82.8277 64.2999 82.8013 64.3819 82.7749C64.4541 82.7513 64.5249 82.7277 64.5958 82.7041C64.7124 82.6652 64.8277 82.6249 64.9444 82.5819C65.0152 82.5555 65.0874 82.5305 65.1583 82.5027C65.2763 82.4583 65.3944 82.4124 65.5124 82.3652L65.5666 82.3444C65.6152 82.3249 65.6652 82.3055 65.7138 82.286C65.8485 82.2305 65.9819 82.1722 66.1166 82.1138L66.1805 82.086C66.2069 82.0749 66.2346 82.0624 66.261 82.0513L66.3694 81.9999C66.5694 81.9083 66.7749 81.8097 66.9791 81.7069C67.0485 81.6722 67.1194 81.636 67.1888 81.5999C67.3721 81.5055 67.5569 81.4055 67.7402 81.3027L67.8083 81.2652C67.8402 81.2472 67.8721 81.2305 67.9041 81.2124C68.1319 81.0819 68.3346 80.961 68.5235 80.8416C68.7166 80.7208 68.9194 80.5874 69.1458 80.4333C69.293 80.3319 69.4416 80.2291 69.5888 80.1222L69.6721 80.061C69.8527 79.9291 70.0138 79.8069 70.1652 79.6888L70.2027 79.6583C70.3902 79.511 70.5652 79.3694 70.7346 79.2277C70.8777 79.1069 71.018 78.9847 71.1569 78.861C71.186 78.8347 71.2138 78.8083 71.243 78.7819L71.3374 78.6958C71.4138 78.6263 71.4916 78.5555 71.5666 78.4847L71.6291 78.4249C71.7694 78.2902 71.9096 78.1527 72.0583 78.0013C72.1027 77.9555 72.1471 77.9097 72.1916 77.8638C72.3235 77.7263 72.4541 77.5874 72.5805 77.4472L72.6541 77.368C72.8013 77.2041 72.9499 77.0305 73.1096 76.8388L73.218 76.7069C73.3555 76.5388 73.4805 76.3805 73.5985 76.2235L73.6555 76.1513C73.7999 75.9597 73.9471 75.7541 74.1055 75.5235L74.1902 75.3999C74.3346 75.1874 74.4708 74.9749 74.5971 74.7708C74.6291 74.718 74.661 74.6652 74.693 74.6124L74.7069 74.5888C74.7569 74.5055 74.8069 74.4222 74.8555 74.3374C74.8902 74.2777 74.9235 74.218 74.9569 74.1583L74.9708 74.1333C75.018 74.0499 75.0638 73.9652 75.1096 73.8819C75.1471 73.8138 75.1833 73.7444 75.2194 73.6749C75.2624 73.5916 75.3055 73.5069 75.3485 73.4235C75.3833 73.3541 75.418 73.2847 75.4513 73.2138C75.4916 73.1291 75.5319 73.0458 75.5708 72.961L75.5833 72.9319C75.6291 72.8333 75.6749 72.7347 75.718 72.636C75.9527 72.0999 76.1583 71.5597 76.3249 71.0277C77.0208 68.8444 77.2138 66.5749 76.8846 64.4624C76.8624 64.318 76.836 64.1652 76.8027 63.9958L76.7749 63.8624C76.7485 63.736 76.7221 63.611 76.6916 63.486L76.6569 63.3444C76.611 63.1597 76.5694 63.0055 76.5263 62.8624C76.4694 62.6694 76.4027 62.4638 76.3138 62.2138C76.2944 62.1597 76.2749 62.1041 76.2541 62.0499C76.1749 61.8374 76.0999 61.6485 76.0235 61.4722L76.0027 61.4208C75.9221 61.236 75.8291 61.0388 75.7152 60.8152C75.6874 60.7597 75.6583 60.7041 75.6291 60.6485C75.5596 60.518 75.4888 60.3888 75.4152 60.2597L75.386 60.2097C75.3652 60.1735 75.3444 60.136 75.3221 60.0999C75.2055 59.9041 75.0985 59.7333 74.9944 59.5777C74.8971 59.4319 74.7958 59.2874 74.6944 59.1485C74.593 59.0097 74.6221 58.8138 74.761 58.7124C74.8999 58.611 75.0958 58.6402 75.1971 58.7791L75.1985 58.7805L78.6999 63.5541C78.8069 63.6999 78.9124 63.8513 79.0138 64.0027C79.0152 64.0055 79.0166 64.0083 79.0194 64.011C79.1291 64.1763 79.2402 64.3541 79.361 64.5555C79.3846 64.5944 79.4055 64.6333 79.4277 64.6708L79.4569 64.7222C79.5346 64.8583 79.6096 64.9944 79.6819 65.1319L79.7013 65.168C79.7138 65.1902 79.7263 65.2124 79.7374 65.2347C79.7458 65.2499 79.7527 65.2666 79.7596 65.2819L79.7708 65.3069C79.8888 65.5402 79.9874 65.7485 80.0735 65.9458L80.0958 65.9985C80.1777 66.1902 80.2569 66.3888 80.3388 66.6083L80.3499 66.6374C80.3583 66.6569 80.3666 66.6763 80.3735 66.6972C80.3805 66.7152 80.386 66.7347 80.3916 66.7541L80.4013 66.7833C80.493 67.0402 80.5638 67.2569 80.6235 67.4624C80.668 67.6138 80.711 67.7749 80.761 67.9694C80.7708 68.0069 80.7791 68.0458 80.7888 68.0833L80.7971 68.1166C80.8291 68.2485 80.8583 68.3805 80.8846 68.5124L80.893 68.5472C80.8972 68.5652 80.9013 68.5833 80.9055 68.6027L80.9138 68.6513C80.9485 68.8319 80.9763 68.9916 80.9999 69.1416C81.343 71.3499 81.143 73.718 80.418 75.9916C80.2444 76.5416 80.0319 77.1041 79.7874 77.661C79.7555 77.7347 79.7221 77.8097 79.6888 77.8833C79.6777 77.9069 79.668 77.9291 79.6569 77.9513L79.6346 77.9972C79.5944 78.0847 79.5527 78.1722 79.511 78.2583C79.4763 78.3319 79.4402 78.4041 79.4041 78.4763C79.361 78.5638 79.3166 78.6499 79.2708 78.7374C79.2333 78.8097 79.1958 78.8805 79.1569 78.9527C79.1096 79.0402 79.0624 79.1263 79.0138 79.2124L78.993 79.2499C78.961 79.3083 78.9277 79.3666 78.8944 79.4235C78.8444 79.511 78.793 79.5972 78.7402 79.6833L78.7041 79.743C78.6874 79.7722 78.6694 79.8013 78.6527 79.8305L78.6333 79.861C78.4944 80.0847 78.3527 80.3041 78.2041 80.5235L78.1166 80.6499C77.9513 80.8902 77.7985 81.1027 77.6499 81.2999L77.5916 81.3763C77.4694 81.536 77.3374 81.7055 77.1971 81.8763L77.1833 81.8944C77.1513 81.9333 77.1194 81.9735 77.086 82.0124C76.9208 82.211 76.768 82.3902 76.6152 82.5597L76.5985 82.5791C76.5874 82.5916 76.5749 82.6055 76.5624 82.618L76.5388 82.643C76.4069 82.7874 76.2735 82.9305 76.1374 83.0722C76.0916 83.1194 76.0458 83.1666 75.9999 83.2138C75.8458 83.3708 75.6999 83.5138 75.5569 83.6513L75.5402 83.668C75.5291 83.6791 75.5194 83.6888 75.5083 83.6999C75.5069 83.7013 75.4971 83.7097 75.4958 83.711C75.418 83.7847 75.3388 83.8569 75.2596 83.9291L75.1638 84.018C75.1333 84.0458 75.1027 84.0749 75.0708 84.1027C74.9277 84.2305 74.7819 84.3569 74.6333 84.4819C74.5402 84.5597 74.4485 84.636 74.3569 84.7097C74.2652 84.7833 74.1749 84.8555 74.0846 84.9263L74.0471 84.9569C73.8888 85.0805 73.7221 85.2069 73.5388 85.3402L73.4527 85.4041C73.3194 85.4999 73.186 85.5958 73.0527 85.6874C73.0402 85.6958 73.0277 85.7041 73.0152 85.7124L72.9944 85.7263C72.7624 85.8847 72.5513 86.0222 72.3513 86.1485C72.1527 86.2735 71.943 86.3985 71.711 86.5319L71.6624 86.561C71.6388 86.5749 71.6138 86.5874 71.5902 86.5999C71.5735 86.6083 71.5569 86.6166 71.5416 86.6263C71.3513 86.7333 71.1596 86.836 70.9721 86.9333C70.8999 86.9708 70.8277 87.0083 70.7555 87.0444C70.543 87.1513 70.3305 87.2527 70.1249 87.3472L70.093 87.3624C70.0749 87.3708 70.0569 87.3805 70.0388 87.3874L70.0194 87.3958C69.9819 87.4124 69.9513 87.4263 69.9208 87.4388L69.8624 87.4638C69.7235 87.5249 69.5846 87.5847 69.4458 87.6416C69.3971 87.6624 69.3471 87.6819 69.2971 87.7013L69.2388 87.7249C69.1166 87.7735 68.9944 87.8208 68.8721 87.8666C68.7985 87.8944 68.7249 87.9208 68.6513 87.9485C68.5319 87.9916 68.411 88.0333 68.2916 88.0749C68.2152 88.0999 68.143 88.1249 68.0708 88.1485L68.0235 88.1638C68.0013 88.1722 67.9777 88.1791 67.9555 88.186C67.9194 88.1972 67.8833 88.2083 67.8458 88.218L67.7721 88.2402C67.6499 88.2777 67.5277 88.3138 67.4055 88.3485C67.311 88.3749 67.2166 88.4013 67.1221 88.4263C66.9999 88.4583 66.8791 88.4902 66.7569 88.5194C66.6624 88.543 66.5666 88.5652 66.4708 88.5874C66.3485 88.6152 66.2277 88.6416 66.1055 88.6666C66.0096 88.686 65.9152 88.7055 65.8194 88.7235C65.6971 88.7472 65.5735 88.768 65.4499 88.7888L65.418 88.7944C65.3346 88.8083 65.2527 88.8222 65.1694 88.8347C65.043 88.8541 64.918 88.8708 64.7916 88.886L64.7235 88.8944C64.6555 88.9027 64.5874 88.9124 64.5208 88.9194C64.3902 88.9347 64.2596 88.9458 64.1291 88.9583L64.0458 88.9666C63.9874 88.9722 63.9305 88.9777 63.8721 88.9819C63.7277 88.993 63.5846 88.9999 63.4416 89.0069L63.361 89.011C63.3166 89.0138 63.2721 89.0166 63.2277 89.018C63.0152 89.0305 62.7985 89.0347 62.5944 89.0347ZM54.2152 85.7347C54.7763 86.161 55.3833 86.543 56.0194 86.8722C57.961 87.8777 60.2346 88.4083 62.5958 88.4083C62.7916 88.4083 62.9999 88.4041 63.2138 88.3958C63.2541 88.3944 63.2944 88.3916 63.3346 88.3888L63.4208 88.3833C63.5596 88.3763 63.6971 88.3694 63.836 88.3583C63.8902 88.3541 63.9444 88.3485 63.9985 88.3444L64.0833 88.336C64.211 88.3249 64.336 88.3124 64.4624 88.2985C64.5263 88.2916 64.5902 88.2833 64.6555 88.2749L64.7249 88.2652C64.8458 88.2499 64.968 88.2333 65.0888 88.2152C65.168 88.2027 65.2485 88.1902 65.3277 88.1763L65.3596 88.1708C65.4791 88.1513 65.5971 88.1305 65.7152 88.1083C65.8069 88.0902 65.8985 88.0722 65.9916 88.0527C66.1096 88.0291 66.2263 88.0027 66.3444 87.9763C66.436 87.9555 66.5291 87.9333 66.6208 87.911C66.7388 87.8819 66.8555 87.8513 66.9735 87.8208C67.0652 87.7958 67.1569 87.7722 67.2471 87.7458C67.3652 87.7124 67.4833 87.6763 67.6013 87.6402L67.6846 87.6152C67.7166 87.6055 67.7471 87.5972 67.7777 87.5874L67.8888 87.5499C67.9583 87.5277 68.0291 87.5041 68.0985 87.4805C68.218 87.4402 68.3346 87.3999 68.4499 87.3583C68.5208 87.3319 68.593 87.3069 68.6638 87.2791C68.7819 87.2347 68.8999 87.1888 69.018 87.1416L69.0777 87.118C69.1249 87.0999 69.1708 87.0805 69.218 87.0624C69.3527 87.0069 69.4874 86.9485 69.6208 86.8902L69.6846 86.8624C69.7124 86.8513 69.7388 86.8388 69.7652 86.8277L69.8263 86.7999C69.843 86.7916 69.8583 86.7847 69.8749 86.7763C70.0735 86.6847 70.2791 86.586 70.486 86.4833C70.5569 86.4485 70.6263 86.4124 70.6958 86.3763C70.8777 86.2819 71.0624 86.1819 71.2471 86.0791C71.268 86.068 71.2888 86.0569 71.3096 86.0458C71.3277 86.036 71.3458 86.0263 71.3638 86.0166L71.4096 85.9888C71.636 85.8597 71.8388 85.7374 72.0305 85.618C72.2235 85.4972 72.4277 85.3638 72.6527 85.2097L72.7083 85.1735C72.8374 85.0847 72.9666 84.993 73.0958 84.8999L73.1805 84.8374C73.3583 84.7069 73.5194 84.586 73.6722 84.4652L73.7096 84.4347C73.7958 84.3666 73.8846 84.2972 73.9735 84.2249C74.0624 84.1527 74.1527 84.0791 74.2416 84.0041C74.3846 83.8833 74.5249 83.761 74.6638 83.6374C74.693 83.6124 74.7208 83.586 74.7472 83.561L74.8471 83.4694C74.9221 83.3999 74.9985 83.3319 75.0721 83.261C75.0735 83.2597 75.0805 83.2527 75.0833 83.2513L75.1346 83.2013C75.2735 83.0694 75.4138 82.9305 75.5638 82.7777C75.6083 82.7319 75.6527 82.686 75.6971 82.6402C75.8291 82.5027 75.9596 82.3638 76.086 82.2235L76.1596 82.143C76.3055 81.9791 76.4555 81.8069 76.6152 81.6138C76.6472 81.5763 76.6777 81.5388 76.7083 81.4999L76.7235 81.4819C76.8583 81.3166 76.9874 81.1527 77.1055 80.9985L77.1624 80.9249C77.3055 80.736 77.4527 80.5305 77.6124 80.2985L77.6958 80.1763C77.8402 79.9638 77.9763 79.7513 78.1041 79.5458L78.1291 79.5069C78.1444 79.4819 78.1596 79.4555 78.1749 79.4291L78.2138 79.3638C78.2638 79.2805 78.3138 79.1972 78.3624 79.1138C78.3944 79.0583 78.4263 79.0027 78.4569 78.9458L78.4777 78.9083C78.5235 78.8249 78.5708 78.7416 78.6152 78.6583C78.6527 78.5888 78.6888 78.5208 78.7249 78.4513C78.768 78.368 78.811 78.2847 78.8527 78.1999C78.8874 78.1291 78.9221 78.0597 78.9569 77.9888C78.9971 77.9055 79.0374 77.8208 79.0763 77.736L79.1291 77.6263C79.161 77.5555 79.193 77.4847 79.2249 77.4124C79.461 76.8749 79.6652 76.3347 79.8319 75.8041C80.5277 73.6208 80.7208 71.3513 80.3916 69.2388C80.3694 69.0972 80.343 68.9458 80.3096 68.7735L80.2833 68.6416C80.2569 68.5152 80.2291 68.3902 80.1999 68.2652L80.1916 68.2305C80.1833 68.1958 80.1749 68.1597 80.1666 68.1249C80.1194 67.9388 80.0777 67.7847 80.036 67.6416C79.9791 67.4458 79.911 67.2402 79.8235 66.9944C79.818 66.9763 79.8124 66.961 79.8069 66.9444C79.8041 66.9347 79.7999 66.9235 79.7971 66.9138C79.793 66.9027 79.7888 66.893 79.7846 66.8833C79.7777 66.8666 79.7708 66.8485 79.7638 66.8319C79.686 66.6235 79.611 66.4333 79.5333 66.2541L79.5124 66.2027C79.4319 66.0166 79.3374 65.818 79.2249 65.5958C79.218 65.5819 79.2096 65.5652 79.2027 65.5499L79.1916 65.5249C79.1847 65.511 79.1763 65.4958 79.168 65.4819C79.1583 65.4652 79.1485 65.4472 79.1388 65.4291C79.0694 65.2972 78.9985 65.168 78.9249 65.0388L78.8944 64.9847C78.8749 64.9499 78.8541 64.9138 78.8333 64.8791C78.7166 64.6833 78.6096 64.511 78.5055 64.3569C78.5041 64.3555 78.5027 64.3527 78.5013 64.3499C78.4055 64.2069 78.3055 64.0652 78.2055 63.9277L77.0096 62.2972C77.0569 62.4374 77.0971 62.5666 77.1333 62.6902C77.1777 62.8416 77.2221 63.0027 77.2708 63.1972L77.3069 63.3444C77.3374 63.4763 77.3666 63.6069 77.3944 63.7388L77.4235 63.8777C77.4583 64.0555 77.486 64.2152 77.5096 64.368C77.8527 66.5763 77.6513 68.9444 76.9277 71.218C76.7541 71.7694 76.5416 72.3319 76.2971 72.8874C76.2527 72.9902 76.2041 73.093 76.1569 73.1958L76.1444 73.2235C76.1041 73.311 76.0624 73.3985 76.0208 73.486C75.986 73.5583 75.9499 73.6305 75.9138 73.7041C75.8694 73.7916 75.8249 73.8791 75.7805 73.9652C75.743 74.036 75.7055 74.1083 75.668 74.1791C75.6208 74.2666 75.5721 74.3527 75.5235 74.4402L75.5096 74.4652C75.4749 74.5277 75.4402 74.5888 75.4041 74.6513C75.3541 74.7388 75.3027 74.8249 75.2499 74.911L75.236 74.9347C75.2027 74.9902 75.1694 75.0458 75.136 75.0999C75.0055 75.3124 74.8638 75.5319 74.7138 75.7527L74.6263 75.8805C74.4624 76.1194 74.3096 76.3319 74.1596 76.5305L74.1013 76.6055C73.9777 76.768 73.8485 76.9319 73.7069 77.1055L73.5944 77.2416C73.4305 77.4402 73.2763 77.618 73.1235 77.7874L73.0472 77.8694C72.9152 78.0138 72.7819 78.1569 72.6444 78.2999C72.5985 78.3472 72.5527 78.3944 72.5069 78.4416C72.3541 78.5972 72.2096 78.7402 72.0638 78.8791L71.9999 78.9416C71.9221 79.0152 71.843 79.0874 71.7624 79.161L71.6721 79.2444C71.6402 79.2735 71.6096 79.3027 71.5777 79.3305C71.4346 79.4583 71.2888 79.5847 71.1402 79.7097C70.9638 79.8569 70.7846 80.0027 70.5902 80.1541L70.5527 80.1847C70.3958 80.3069 70.2291 80.4333 70.0444 80.568L69.9583 80.6319C69.8055 80.743 69.6527 80.8485 69.5013 80.9527C69.2694 81.111 69.0583 81.2485 68.8583 81.3749C68.661 81.4985 68.4513 81.6235 68.218 81.7583C68.1833 81.7777 68.1485 81.7972 68.1124 81.8166L68.0485 81.8527C67.8596 81.9583 67.668 82.0624 67.4791 82.1597C67.4069 82.1972 67.3346 82.2347 67.2624 82.2708C67.0499 82.3777 66.8388 82.4791 66.6319 82.5735L66.5833 82.5958C66.5624 82.6055 66.5402 82.6166 66.5194 82.6263C66.4888 82.6402 66.4583 82.6527 66.4277 82.6666L66.368 82.6916C66.2291 82.7527 66.0902 82.8124 65.9513 82.8694C65.8999 82.8902 65.8485 82.911 65.7958 82.9319L65.743 82.9527C65.6208 83.0013 65.4999 83.0485 65.3763 83.0944C65.3027 83.1222 65.2291 83.1485 65.1541 83.1763C65.0346 83.2194 64.9138 83.261 64.7944 83.3013C64.7208 83.3263 64.6471 83.3513 64.5735 83.3749C64.4874 83.4027 64.3999 83.4291 64.3138 83.4555L64.2749 83.4666C64.1527 83.5041 64.0305 83.5402 63.9083 83.5749C63.8138 83.6013 63.718 83.6277 63.6235 83.6527C63.5027 83.6847 63.3819 83.7166 63.2596 83.7458C63.1638 83.7694 63.068 83.7916 62.9721 83.8138C62.8513 83.8416 62.7291 83.868 62.6083 83.893C62.5138 83.9124 62.418 83.9319 62.3221 83.9499C62.1985 83.9735 62.0763 83.9944 61.9527 84.0152L61.9249 84.0194C61.8402 84.0333 61.7555 84.0472 61.6708 84.061C61.5444 84.0805 61.4194 84.0972 61.2944 84.1124L61.2277 84.1208C61.1583 84.1305 61.0902 84.1388 61.0221 84.1472C60.893 84.1624 60.7638 84.1735 60.6346 84.186L60.5485 84.1944C60.4902 84.1999 60.4319 84.2055 60.3749 84.2097C60.2319 84.2208 60.0888 84.2277 59.9458 84.2347L59.8638 84.2388C59.8194 84.2416 59.7749 84.2444 59.7305 84.2458C59.5083 84.2541 59.293 84.2583 59.0888 84.2583C56.6277 84.2583 54.2555 83.7027 52.2249 82.6513C52.0708 82.5722 51.9194 82.4888 51.7694 82.4041L54.2152 85.7347Z" fill="#F9FAFB"/>
<path d="M121.343 90.0374C122.484 90.0374 123.41 89.1121 123.41 87.9707C123.41 86.8293 122.484 85.9041 121.343 85.9041C120.202 85.9041 119.276 86.8293 119.276 87.9707C119.276 89.1121 120.202 90.0374 121.343 90.0374Z" fill="#F9FAFB"/>
<path d="M34.4348 82.4124C35.5762 82.4124 36.5015 81.4871 36.5015 80.3457C36.5015 79.2043 35.5762 78.2791 34.4348 78.2791C33.2934 78.2791 32.3682 79.2043 32.3682 80.3457C32.3682 81.4871 33.2934 82.4124 34.4348 82.4124Z" fill="#F9FAFB"/>
<path d="M35.469 84.0832C35.8709 84.0832 36.1968 83.7574 36.1968 83.3555C36.1968 82.9535 35.8709 82.6277 35.469 82.6277C35.067 82.6277 34.7412 82.9535 34.7412 83.3555C34.7412 83.7574 35.067 84.0832 35.469 84.0832Z" fill="#F9FAFB"/>
<path d="M45.7171 56.4195C46.8584 56.4195 47.7837 55.4942 47.7837 54.3528C47.7837 53.2114 46.8584 52.2861 45.7171 52.2861C44.5757 52.2861 43.6504 53.2114 43.6504 54.3528C43.6504 55.4942 44.5757 56.4195 45.7171 56.4195Z" fill="#F9FAFB"/>
<path d="M48.1321 53.0083C48.534 53.0083 48.8599 52.6825 48.8599 52.2805C48.8599 51.8786 48.534 51.5527 48.1321 51.5527C47.7301 51.5527 47.4043 51.8786 47.4043 52.2805C47.4043 52.6825 47.7301 53.0083 48.1321 53.0083Z" fill="#F9FAFB"/>
<path d="M126.65 45.5362C128.614 45.5362 130.206 43.9443 130.206 41.9806C130.206 40.0169 128.614 38.425 126.65 38.425C124.687 38.425 123.095 40.0169 123.095 41.9806C123.095 43.9443 124.687 45.5362 126.65 45.5362Z" fill="#E4E7EC"/>
<path d="M123.094 40.225C124.029 40.225 124.787 39.467 124.787 38.5319C124.787 37.5969 124.029 36.8389 123.094 36.8389C122.159 36.8389 121.401 37.5969 121.401 38.5319C121.401 39.467 122.159 40.225 123.094 40.225Z" fill="#F9FAFB"/>
</svg>
