<svg width="33" height="33" viewBox="0 0 33 33" fill="none" xmlns="http://www.w3.org/2000/svg">
<path d="M16.0557 0.660156C7.18836 0.660156 0 7.84879 0 16.7159C0 25.5827 7.18836 32.7722 16.0557 32.7722C24.9226 32.7722 32.1115 25.583 32.1115 16.7159C32.1112 7.84879 24.9226 0.660156 16.0557 0.660156ZM23.0545 23.1489C23.0423 23.2144 23.0317 23.2774 23.022 23.3376C22.9623 23.698 22.8516 24.3693 22.09 24.3693C21.9282 24.3693 21.7297 24.3318 21.4551 24.2799C21.0967 24.2124 20.6509 24.128 20.2528 24.128C19.8666 24.128 19.6984 24.2105 19.6326 24.2596C19.5212 24.3423 19.4046 24.4403 19.2792 24.5456C18.7231 25.0122 17.9616 25.6505 16.7631 25.8715C16.4727 25.925 16.2448 25.9514 16.0657 25.9525L16.0627 25.9528H16.0557C15.8656 25.9514 15.6377 25.9248 15.3484 25.8715C14.1505 25.6505 13.389 25.012 12.8329 24.5458C12.7074 24.4406 12.5911 24.3426 12.4798 24.2596C12.399 24.1996 12.226 24.128 11.8593 24.128C11.4612 24.128 11.0153 24.2124 10.6569 24.2799C10.3821 24.3321 10.1836 24.3693 10.0214 24.3693C9.25994 24.3693 9.14917 23.6983 9.09004 23.3379C9.07994 23.2748 9.06911 23.2118 9.05756 23.1489C7.69168 22.9656 6.44851 22.6222 6.37771 21.3827C6.3697 21.2418 6.41564 21.1031 6.50619 20.9949C6.59674 20.8866 6.72511 20.8169 6.86521 20.7999C9.38209 20.494 10.5445 18.1892 10.6311 17.5976C10.6783 17.2747 10.3046 17.1951 10.2297 17.1823C10.2166 17.1798 10.2036 17.1773 10.1908 17.1742C8.88432 16.8564 8.22193 16.3939 8.22193 15.8C8.22193 15.2184 8.67583 14.812 9.32601 14.812C9.54367 14.812 9.76659 14.8564 9.97092 14.9403C10.0459 14.9708 10.1836 15.0074 10.4154 15.0074C10.5128 15.0074 10.6097 15.0011 10.7013 14.9911C10.5986 14.4653 10.4967 13.586 10.4967 12.1682C10.4967 8.70774 13.45 7.47956 15.9788 7.47956L16.0694 7.48067L16.1332 7.47956C16.5105 7.47956 17.8394 7.52481 19.0865 8.10836C20.7411 8.88236 21.6153 10.2863 21.6153 12.1682C21.6153 13.5858 21.5134 14.4653 21.4107 14.9911C21.5023 15.0008 21.5995 15.0074 21.6969 15.0074C21.929 15.0074 22.0667 14.9708 22.1417 14.9403C22.3463 14.8563 22.5652 14.8127 22.7863 14.812C23.4365 14.812 23.8907 15.2184 23.8907 15.8C23.8907 16.3944 23.228 16.8567 21.9213 17.1742C21.9084 17.1775 21.8955 17.1802 21.8824 17.1823C21.718 17.2137 21.4388 17.3114 21.481 17.5976C21.5678 18.1892 22.7302 20.494 25.2474 20.7999C25.3875 20.817 25.5158 20.8867 25.6063 20.9949C25.6969 21.1032 25.7428 21.2418 25.7349 21.3827C25.6638 22.6219 24.4206 22.9656 23.0545 23.1489Z" fill="white"/>
</svg>
