<svg width="33" height="33" viewBox="0 0 33 33" fill="none" xmlns="http://www.w3.org/2000/svg">
<path d="M16.5001 0.660156C7.63269 0.660156 0.444336 7.84879 0.444336 16.7159C0.444336 25.5827 7.63269 32.7722 16.5001 32.7722C25.3669 32.7722 32.5558 25.583 32.5558 16.7159C32.5556 7.84879 25.3669 0.660156 16.5001 0.660156ZM23.4988 23.1489C23.4866 23.2144 23.4761 23.2774 23.4663 23.3376C23.4067 23.698 23.2959 24.3693 22.5344 24.3693C22.3725 24.3693 22.174 24.3318 21.8995 24.2799C21.5411 24.2124 21.0952 24.128 20.6971 24.128C20.3109 24.128 20.1427 24.2105 20.0769 24.2596C19.9656 24.3423 19.849 24.4403 19.7235 24.5456C19.1674 25.0122 18.4059 25.6505 17.2075 25.8715C16.9171 25.925 16.6891 25.9514 16.5101 25.9525L16.507 25.9528H16.5001C16.3099 25.9514 16.082 25.9248 15.7927 25.8715C14.5948 25.6505 13.8333 25.012 13.2772 24.5458C13.1517 24.4406 13.0354 24.3426 12.9241 24.2596C12.8433 24.1996 12.6703 24.128 12.3036 24.128C11.9055 24.128 11.4597 24.2124 11.1012 24.2799C10.8264 24.3321 10.6279 24.3693 10.4658 24.3693C9.70428 24.3693 9.59351 23.6983 9.53438 23.3379C9.52428 23.2748 9.51345 23.2118 9.50189 23.1489C8.13601 22.9656 6.89284 22.6222 6.82205 21.3827C6.81404 21.2418 6.85998 21.1031 6.95053 20.9949C7.04108 20.8866 7.16945 20.8169 7.30955 20.7999C9.82643 20.494 10.9888 18.1892 11.0754 17.5976C11.1226 17.2747 10.749 17.1951 10.674 17.1823C10.6609 17.1798 10.6479 17.1773 10.6351 17.1742C9.32866 16.8564 8.66626 16.3939 8.66626 15.8C8.66626 15.2184 9.12017 14.812 9.77035 14.812C9.988 14.812 10.2109 14.8564 10.4153 14.9403C10.4902 14.9708 10.6279 15.0074 10.8597 15.0074C10.9572 15.0074 11.0541 15.0011 11.1457 14.9911C11.043 14.4653 10.9411 13.586 10.9411 12.1682C10.9411 8.70774 13.8944 7.47956 16.4232 7.47956L16.5137 7.48067L16.5775 7.47956C16.9548 7.47956 18.2838 7.52481 19.5308 8.10836C21.1854 8.88236 22.0597 10.2863 22.0597 12.1682C22.0597 13.5858 21.9578 14.4653 21.8551 14.9911C21.9467 15.0008 22.0438 15.0074 22.1413 15.0074C22.3734 15.0074 22.5111 14.9708 22.586 14.9403C22.7906 14.8563 23.0095 14.8127 23.2306 14.812C23.8808 14.812 24.335 15.2184 24.335 15.8C24.335 16.3944 23.6723 16.8567 22.3656 17.1742C22.3528 17.1775 22.3398 17.1802 22.3267 17.1823C22.1624 17.2137 21.8831 17.3114 21.9253 17.5976C22.0122 18.1892 23.1746 20.494 25.6917 20.7999C25.8318 20.817 25.9601 20.8867 26.0507 20.9949C26.1412 21.1032 26.1872 21.2418 26.1792 21.3827C26.1082 22.6219 24.865 22.9656 23.4988 23.1489Z" fill="#141414"/>
</svg>
