<svg width="33" height="33" viewBox="0 0 33 33" fill="none" xmlns="http://www.w3.org/2000/svg">
<path fill-rule="evenodd" clip-rule="evenodd" d="M0.555908 16.7163C0.555908 7.87975 7.71935 0.716309 16.5559 0.716309C25.3925 0.716309 32.5559 7.87975 32.5559 16.7163C32.5559 25.5529 25.3925 32.7163 16.5559 32.7163C7.71935 32.7163 0.555908 25.5529 0.555908 16.7163Z" fill="#141414"/>
<g clip-path="url(#clip0_1243_12467)">
<path d="M21.6672 11.7045C20.869 10.8786 20.4507 9.81129 20.4839 8.72464L17.5006 8.66064C17.5006 8.66064 17.5006 8.77399 17.5006 8.92658V20.0233C16.6974 23.2086 11.5173 22.3775 12.0359 19.1365C12.3252 17.6561 14.1123 16.7453 15.7006 17.2602V14.5513C12.2429 14.0156 8.96607 16.4647 9.00051 19.5851C9.30274 26.352 20.2089 26.353 20.5115 19.5851C20.4352 19.3429 20.4778 14.8332 20.467 14.453C21.8235 15.2041 23.4019 15.5795 25.0002 15.5317V12.7339C23.5226 12.7339 22.3949 12.3842 21.6672 11.7045Z" fill="#CD9900"/>
</g>
<defs>
<clipPath id="clip0_1243_12467">
<rect width="16" height="16" fill="white" transform="translate(8.55591 8.71631)"/>
</clipPath>
</defs>
</svg>
