<svg width="33" height="33" viewBox="0 0 33 33" fill="none" xmlns="http://www.w3.org/2000/svg">
<path fill-rule="evenodd" clip-rule="evenodd" d="M0.111328 16.7163C0.111328 7.87975 7.27477 0.716309 16.1113 0.716309C24.9479 0.716309 32.1113 7.87975 32.1113 16.7163C32.1113 25.5529 24.9479 32.7163 16.1113 32.7163C7.27477 32.7163 0.111328 25.5529 0.111328 16.7163Z" fill="#141414"/>
<g clip-path="url(#clip0_2172_13727)">
<path d="M21.2226 11.7045C20.4244 10.8786 20.0062 9.81129 20.0393 8.72464L17.056 8.66064C17.056 8.66064 17.056 8.77399 17.056 8.92658V20.0233C16.2528 23.2086 11.0727 22.3775 11.5913 19.1365C11.8806 17.6561 13.6677 16.7453 15.256 17.2602V14.5513C11.7983 14.0156 8.52149 16.4647 8.55593 19.5851C8.85816 26.352 19.7643 26.353 20.0669 19.5851C19.9906 19.3429 20.0332 14.8332 20.0224 14.453C21.379 15.2041 22.9573 15.5795 24.5557 15.5317V12.7339C23.078 12.7339 21.9503 12.3842 21.2226 11.7045Z" fill="#CD9900"/>
</g>
<defs>
<clipPath id="clip0_2172_13727">
<rect width="16" height="16" fill="#141414" transform="translate(8.11133 8.71631)"/>
</clipPath>
</defs>
</svg>
