<svg width="25" height="25" viewBox="0 0 25 25" fill="none" xmlns="http://www.w3.org/2000/svg">
<path d="M21.5 6.14026C18.17 5.81026 14.82 5.64026 11.48 5.64026C9.5 5.64026 7.52 5.74026 5.54 5.94026L3.5 6.14026"  stroke-width="1.5" stroke-linecap="round" stroke-linejoin="round"/>
<path d="M9 5.13028L9.22 3.82028C9.38 2.87028 9.5 2.16028 11.19 2.16028H13.81C15.5 2.16028 15.63 2.91028 15.78 3.83028L16 5.13028" stroke-width="1.5" stroke-linecap="round" stroke-linejoin="round"/>
<path d="M19.3504 9.30029L18.7004 19.3703C18.5904 20.9403 18.5004 22.1603 15.7104 22.1603H9.29039C6.50039 22.1603 6.41039 20.9403 6.30039 19.3703L5.65039 9.30029"  stroke-width="1.5" stroke-linecap="round" stroke-linejoin="round"/>
<path d="M10.8301 16.6603H14.1601"  stroke-width="1.5" stroke-linecap="round" stroke-linejoin="round"/>
<path d="M10 12.6603H15"  stroke-width="1.5" stroke-linecap="round" stroke-linejoin="round"/>
</svg>
