<svg width="33" height="33" viewBox="0 0 33 33" fill="none" xmlns="http://www.w3.org/2000/svg">
<path fill-rule="evenodd" clip-rule="evenodd" d="M0.555908 16.7163C0.555908 7.87975 7.71935 0.716309 16.5559 0.716309C25.3925 0.716309 32.5559 7.87975 32.5559 16.7163C32.5559 25.5529 25.3925 32.7163 16.5559 32.7163C7.71935 32.7163 0.555908 25.5529 0.555908 16.7163Z" fill="white"/>
<path d="M15.0251 18.5954L17.1418 21.7146C17.9027 22.836 18.2831 23.3967 18.8533 23.7062C18.869 23.7147 18.8847 23.7231 18.9006 23.7312C19.4767 24.0292 20.1543 24.0292 21.5095 24.0292C22.5918 24.0292 23.1329 24.0292 23.3237 23.6878C23.3285 23.6791 23.3331 23.6703 23.3375 23.6615C23.513 23.3119 23.2091 22.8642 22.6015 21.9687L17.9394 15.0983L21.2671 11.105C21.6206 10.6808 21.5633 10.0502 21.139 9.69662C20.7147 9.34306 20.0842 9.40038 19.7306 9.82466L16.771 13.3763L15.5243 11.5392C14.7634 10.4178 14.383 9.85714 13.8129 9.54765C13.7971 9.53914 13.7814 9.5308 13.7655 9.5226C13.1894 9.22461 12.5118 9.22461 11.1566 9.22461C10.0744 9.22461 9.53331 9.22461 9.3425 9.56606C9.33766 9.57472 9.33302 9.58348 9.32858 9.59233C9.15318 9.94196 9.457 10.3897 10.0647 11.2852L13.8567 16.8735L9.55346 22.0372C9.1999 22.4616 9.25722 23.0922 9.6815 23.4458C10.1058 23.7992 10.7363 23.7419 11.0899 23.3176L11.6876 22.6004L15.0251 18.5954Z" fill="#141414"/>
</svg>
