<svg width="24" height="25" viewBox="0 0 24 25" fill="none" xmlns="http://www.w3.org/2000/svg">
<path d="M2 2.08014H3.74001C4.82001 2.08014 5.67 3.01014 5.58 4.08014L4.75 14.0401C4.61 15.6701 5.89999 17.0701 7.53999 17.0701H18.19C19.63 17.0701 20.89 15.8901 21 14.4601L21.54 6.96014C21.66 5.30014 20.4 3.95013 18.73 3.95013H5.82001" stroke="white" stroke-width="1.5" stroke-miterlimit="10" stroke-linecap="round" stroke-linejoin="round"/>
<path d="M16.25 22.0801C16.9404 22.0801 17.5 21.5205 17.5 20.8301C17.5 20.1398 16.9404 19.5801 16.25 19.5801C15.5596 19.5801 15 20.1398 15 20.8301C15 21.5205 15.5596 22.0801 16.25 22.0801Z" stroke="white" stroke-width="1.5" stroke-miterlimit="10" stroke-linecap="round" stroke-linejoin="round"/>
<path d="M8.25 22.0801C8.94036 22.0801 9.5 21.5205 9.5 20.8301C9.5 20.1398 8.94036 19.5801 8.25 19.5801C7.55964 19.5801 7 20.1398 7 20.8301C7 21.5205 7.55964 22.0801 8.25 22.0801Z" stroke="white" stroke-width="1.5" stroke-miterlimit="10" stroke-linecap="round" stroke-linejoin="round"/>
<path d="M9 8.08014H21" stroke="white" stroke-width="1.5" stroke-miterlimit="10" stroke-linecap="round" stroke-linejoin="round"/>
</svg>
